<?xml version="1.0" encoding="utf-8"?>
<!-- Generator: Adobe Illustrator 27.9.0, SVG Export Plug-In . SVG Version: 6.00 Build 0)  -->
<svg version="1.1" id="Слой_1" xmlns="http://www.w3.org/2000/svg" xmlns:xlink="http://www.w3.org/1999/xlink" x="0px" y="0px"
	 viewBox="0 0 27 12" style="enable-background:new 0 0 27 12;" xml:space="preserve">
<path d="M6.4,0.6c0.1,0,0.3,0.1,0.4,0.2C7,0.9,7,1.4,6.8,1.5l-5,4.7l5,4.7c0.2,0.2,0.2,0.6,0,0.8c-0.2,0.2-0.6,0.2-0.8,0L0.6,6.7
	c-0.1,0-0.2-0.2-0.2-0.3S0.5,6,0.6,5.8L6,0.7C6.1,0.6,6.3,0.6,6.4,0.6z"/>
<path d="M1,5.8h24.5c0.3,0,0.6,0.3,0.6,0.6s-0.3,0.5-0.6,0.5H1c-0.3,0-0.6-0.3-0.6-0.6S0.7,5.8,1,5.8z"/>
</svg>
