<?xml version="1.0" encoding="utf-8"?>
<!-- Generator: Adobe Illustrator 27.9.0, SVG Export Plug-In . SVG Version: 6.00 Build 0)  -->
<svg version="1.1" id="Слой_1" xmlns="http://www.w3.org/2000/svg" xmlns:xlink="http://www.w3.org/1999/xlink" x="0px" y="0px"
	 viewBox="0 0 27 12" style="enable-background:new 0 0 27 12;" xml:space="preserve">
<path d="M20.1,11.9c-0.1,0-0.3-0.1-0.4-0.2c-0.2-0.2-0.2-0.6,0-0.8l5-4.7l-5-4.7c-0.2-0.2-0.2-0.6,0-0.8c0.2-0.2,0.6-0.2,0.8,0
	l5.4,5.1C26,5.8,26.1,6,26.1,6.1S26,6.4,25.9,6.6l-5.4,5.1C20.4,11.8,20.2,11.9,20.1,11.9z"/>
<path d="M25.5,6.7H1c-0.3,0-0.6-0.3-0.6-0.6S0.7,5.6,1,5.6h24.5c0.3,0,0.6,0.3,0.6,0.6S25.8,6.7,25.5,6.7z"/>
</svg>
