<svg width="13" height="13" viewBox="0 0 13 13" fill="none" xmlns="http://www.w3.org/2000/svg">
<path d="M6.55371 0.339844C8.28223 0.339844 9.75684 0.950195 10.9775 2.1709C12.1982 3.3916 12.8086 4.86133 12.8086 6.58008C12.8086 8.29883 12.1982 9.76855 10.9775 10.9893C9.75684 12.21 8.28223 12.8203 6.55371 12.8203C4.8252 12.8203 3.35059 12.21 2.12988 10.9893C0.90918 9.76855 0.298828 8.29883 0.298828 6.58008C0.298828 4.86133 0.90918 3.3916 2.12988 2.1709C3.35059 0.950195 4.8252 0.339844 6.55371 0.339844ZM6.55371 11.5898C7.93066 11.5898 9.10742 11.1016 10.084 10.125C11.0605 9.14844 11.5488 7.9668 11.5488 6.58008C11.5488 5.19336 11.0605 4.01172 10.084 3.03516C9.10742 2.05859 7.93066 1.57031 6.55371 1.57031C5.17676 1.57031 4 2.05859 3.02344 3.03516C2.04688 4.01172 1.55859 5.19336 1.55859 6.58008C1.55859 7.9668 2.04688 9.14844 3.02344 10.125C4 11.1016 5.17676 11.5898 6.55371 11.5898ZM6.86133 3.44531V6.72656L9.67383 8.39648L9.20508 9.1875L5.92383 7.19531V3.44531H6.86133Z" fill="url(#paint0_linear_29_3104)"/>
<defs>
<linearGradient id="paint0_linear_29_3104" x1="6.55371" y1="12.8203" x2="6.55371" y2="0.339844" gradientUnits="userSpaceOnUse">
<stop stop-color="#75BB0C"/>
<stop offset="1" stop-color="#91D200"/>
</linearGradient>
</defs>
</svg>
