<?xml version="1.0" encoding="utf-8"?>
<!-- Generator: Adobe Illustrator 27.9.0, SVG Export Plug-In . SVG Version: 6.00 Build 0)  -->
<svg version="1.1" id="Слой_1" xmlns="http://www.w3.org/2000/svg" xmlns:xlink="http://www.w3.org/1999/xlink" x="0px" y="0px"
	 viewBox="0 0 24 25" style="enable-background:new 0 0 24 25;" xml:space="preserve">
<g>
	<path d="M9,22.54c0.55,0,1-0.45,1-1s-0.45-1-1-1s-1,0.45-1,1S8.45,22.54,9,22.54z"/>
	<circle cx="9" cy="21.54" r="2"/>
</g>
<g>
	<path d="M20,22.54c0.55,0,1-0.45,1-1s-0.45-1-1-1s-1,0.45-1,1S19.45,22.54,20,22.54z"/>
	<circle cx="20" cy="21.54" r="2"/>
</g>
<path d="M9.62,17.54c-0.66,0-1.33-0.23-1.86-0.66c-0.55-0.44-0.92-1.06-1.06-1.75L5.03,6.78C5.02,6.75,5.02,6.72,5.01,6.69
	L4.18,2.54H1c-0.55,0-1-0.45-1-1s0.45-1,1-1h4c0.48,0,0.89,0.34,0.98,0.8l0.84,4.2H23c0.3,0,0.58,0.13,0.77,0.36
	c0.19,0.23,0.27,0.53,0.21,0.83l-1.6,8.39c-0.14,0.7-0.52,1.32-1.06,1.76c-0.55,0.44-1.25,0.66-1.94,0.66h-9.7
	C9.66,17.54,9.64,17.54,9.62,17.54z M7.22,7.54l1.44,7.19c0.05,0.23,0.17,0.44,0.35,0.58c0.18,0.15,0.42,0.23,0.65,0.22h9.74
	c0.26,0,0.48-0.07,0.67-0.22c0.18-0.15,0.31-0.35,0.35-0.58l1.37-7.19H7.22z"/>
</svg>
