<?xml version="1.0" encoding="utf-8"?>
<!-- Generator: Adobe Illustrator 27.9.0, SVG Export Plug-In . SVG Version: 6.00 Build 0)  -->
<svg version="1.1" id="Слой_1" xmlns="http://www.w3.org/2000/svg" xmlns:xlink="http://www.w3.org/1999/xlink" x="0px" y="0px"
	 viewBox="0 0 14 18" style="enable-background:new 0 0 14 18;" xml:space="preserve">
<path d="M13,18c-0.55,0-1-0.45-1-1V7c0-0.55,0.45-1,1-1s1,0.45,1,1v10C14,17.55,13.55,18,13,18z"/>
<path d="M7,18c-0.55,0-1-0.45-1-1V1c0-0.55,0.45-1,1-1c0.55,0,1,0.45,1,1v16C8,17.55,7.55,18,7,18z"/>
<path d="M1,18c-0.55,0-1-0.45-1-1v-6c0-0.55,0.45-1,1-1s1,0.45,1,1v6C2,17.55,1.55,18,1,18z"/>
</svg>
