<?xml version="1.0" encoding="utf-8"?>
<!-- Generator: Adobe Illustrator 27.9.0, SVG Export Plug-In . SVG Version: 6.00 Build 0)  -->
<svg version="1.1" id="Слой_1" xmlns="http://www.w3.org/2000/svg" xmlns:xlink="http://www.w3.org/1999/xlink" x="0px" y="0px"
	 viewBox="0 0 25 17" style="enable-background:new 0 0 25 17;" xml:space="preserve">
<style type="text/css">
	.st0{fill:#FFFFFF;}
</style>
<path class="st0" d="M23.15,2.2h-22c-0.55,0-1-0.45-1-1s0.45-1,1-1h22c0.55,0,1,0.45,1,1S23.71,2.2,23.15,2.2z"/>
<path class="st0" d="M21.15,9.2h-20c-0.55,0-1-0.45-1-1s0.45-1,1-1h20c0.55,0,1,0.45,1,1S21.71,9.2,21.15,9.2z"/>
<path class="st0" d="M17.15,16.2h-16c-0.55,0-1-0.45-1-1s0.45-1,1-1h16c0.55,0,1,0.45,1,1S17.71,16.2,17.15,16.2z"/>
</svg>
