<svg width="10" height="16" viewBox="0 0 10 16" fill="none" xmlns="http://www.w3.org/2000/svg">
<path d="M8.41917 5.08984C8.41917 5.61719 8.29222 6.21289 8.03831 6.87695C7.78441 7.54102 7.47191 8.15625 7.10081 8.72266C6.72972 9.28906 6.36351 9.82617 6.00218 10.334C5.64085 10.8418 5.33324 11.2324 5.07933 11.5059L4.66917 11.9453C4.57152 11.8477 4.43968 11.7012 4.27367 11.5059C4.10765 11.3105 3.8098 10.9297 3.38011 10.3633C2.95042 9.79688 2.56956 9.24512 2.23753 8.70801C1.9055 8.1709 1.60277 7.56543 1.32933 6.8916C1.05589 6.21777 0.919174 5.61719 0.919174 5.08984C0.919174 4.05469 1.28539 3.1709 2.01781 2.43848C2.75023 1.70605 3.63402 1.33984 4.66917 1.33984C5.70433 1.33984 6.58812 1.70605 7.32054 2.43848C8.05296 3.1709 8.41917 4.05469 8.41917 5.08984ZM3.43871 5.0752C3.43871 5.41699 3.56078 5.70996 3.80492 5.9541C4.04906 6.19824 4.34203 6.32031 4.68382 6.32031C5.02562 6.32031 5.31859 6.19824 5.56273 5.9541C5.80687 5.70996 5.92894 5.41699 5.92894 5.0752C5.92894 4.7334 5.80687 4.44043 5.56273 4.19629C5.31859 3.95215 5.02562 3.83008 4.68382 3.83008C4.34203 3.83008 4.04906 3.95215 3.80492 4.19629C3.56078 4.44043 3.43871 4.7334 3.43871 5.0752ZM0.30394 12.5898H9.06371V13.8203H0.30394V12.5898Z" fill="url(#paint0_linear_29_3092)"/>
<defs>
<linearGradient id="paint0_linear_29_3092" x1="4.68382" y1="13.8203" x2="4.68382" y2="1.33984" gradientUnits="userSpaceOnUse">
<stop stop-color="#75BB0C"/>
<stop offset="1" stop-color="#91D200"/>
</linearGradient>
</defs>
</svg>
