<svg width="14" height="14" viewBox="0 0 14 14" fill="none" xmlns="http://www.w3.org/2000/svg">
<path d="M13.3691 6.51249L3.4358 0.863319C3.3462 0.812845 3.24489 0.786846 3.14205 0.787936C3.03922 0.789026 2.93848 0.817167 2.84997 0.86953C2.76146 0.921893 2.6883 0.996633 2.63783 1.08624C2.58736 1.17584 2.56137 1.27715 2.56246 1.37999V2.90165C2.56246 2.90165 5.8633 4.18665 6.13246 4.28665C6.22952 4.30934 6.31381 4.36917 6.36725 4.4533C6.42069 4.53743 6.43901 4.63916 6.4183 4.73665C6.36996 4.85665 6.2683 4.84332 5.97413 4.77165C5.6808 4.70082 1.38663 3.63165 1.38663 3.63165C1.29344 3.60922 1.19586 3.61314 1.10477 3.643C1.01369 3.67285 0.932712 3.72745 0.870885 3.80069C0.809058 3.87393 0.768824 3.96293 0.75468 4.05772C0.740536 4.15252 0.753041 4.24939 0.790797 4.33749L1.6883 6.47332C1.6883 6.47332 7.47913 6.71499 7.68746 6.72749C7.8933 6.73999 8.01496 6.83915 8.0183 6.99999C8.01496 7.16165 7.8933 7.25999 7.68746 7.27249C7.47913 7.28415 1.6883 7.52665 1.6883 7.52665L0.79163 9.66332C0.754094 9.75138 0.741761 9.84814 0.756007 9.9428C0.770253 10.0375 0.810518 10.1263 0.87231 10.1994C0.934102 10.2725 1.01499 10.327 1.10595 10.3569C1.19692 10.3867 1.29438 10.3907 1.38746 10.3683C1.38746 10.3683 5.68163 9.29915 5.97496 9.22832C6.26913 9.15665 6.3708 9.14332 6.41913 9.26332C6.43985 9.36081 6.42152 9.46254 6.36808 9.54667C6.31464 9.6308 6.23035 9.69063 6.1333 9.71332C5.86413 9.81332 2.5633 11.0992 2.5633 11.0992V12.62C2.5622 12.7228 2.58819 12.8241 2.63866 12.9137C2.68913 13.0033 2.7623 13.0781 2.85081 13.1304C2.93932 13.1828 3.04005 13.2109 3.14289 13.212C3.24572 13.2131 3.34703 13.1871 3.43663 13.1367L13.37 7.48665C13.4593 7.44046 13.5342 7.37059 13.5865 7.28468C13.6388 7.19878 13.6665 7.10014 13.6665 6.99957C13.6665 6.899 13.6388 6.80036 13.5865 6.71445C13.5342 6.62855 13.4585 6.55868 13.3691 6.51249Z" fill="white"/>
</svg>
