<svg width="13" height="11" viewBox="0 0 13 11" fill="none" xmlns="http://www.w3.org/2000/svg">
<path d="M11.5488 0.570312C11.9004 0.570312 12.1982 0.692383 12.4424 0.936523C12.6865 1.18066 12.8086 1.47852 12.8086 1.83008V9.33008C12.8086 9.68164 12.6865 9.97949 12.4424 10.2236C12.1982 10.4678 11.9004 10.5898 11.5488 10.5898H1.55859C1.20703 10.5898 0.90918 10.4678 0.665039 10.2236C0.420898 9.97949 0.298828 9.68164 0.298828 9.33008V1.83008C0.298828 1.47852 0.420898 1.18066 0.665039 0.936523C0.90918 0.692383 1.20703 0.570312 1.55859 0.570312H11.5488ZM11.5488 3.08984V1.83008L6.53906 4.96484L1.55859 1.83008V3.08984L6.53906 6.19531L11.5488 3.08984Z" fill="url(#paint0_linear_29_3098)"/>
<defs>
<linearGradient id="paint0_linear_29_3098" x1="6.55371" y1="10.5898" x2="6.55371" y2="0.570312" gradientUnits="userSpaceOnUse">
<stop stop-color="#75BB0C"/>
<stop offset="1" stop-color="#91D200"/>
</linearGradient>
</defs>
</svg>
