<svg width="10" height="14" viewBox="0 0 10 14" fill="none" xmlns="http://www.w3.org/2000/svg">
<path fill-rule="evenodd" clip-rule="evenodd" d="M7.35793 5.97507C7.05194 6.28286 6.68812 6.52712 6.28739 6.6938C5.88667 6.86048 5.45694 6.94629 5.02293 6.94629C4.58892 6.94629 4.15919 6.86048 3.75846 6.6938C3.35773 6.52712 2.99391 6.28286 2.68793 5.97507C2.38013 5.66908 2.13587 5.30526 1.96919 4.90453C1.80251 4.50381 1.7167 4.07408 1.7167 3.64007C1.7167 3.20606 1.80251 2.77633 1.96919 2.3756C2.13587 1.97487 2.38013 1.61105 2.68793 1.30507C2.99386 0.997172 3.35766 0.752822 3.75839 0.58608C4.15913 0.419338 4.58889 0.333496 5.02293 0.333496C5.45697 0.333496 5.88672 0.419338 6.28746 0.58608C6.6882 0.752822 7.052 0.997172 7.35793 1.30507C7.66572 1.61105 7.90998 1.97487 8.07666 2.3756C8.24334 2.77633 8.32915 3.20606 8.32915 3.64007C8.32915 4.07408 8.24334 4.50381 8.07666 4.90453C7.90998 5.30526 7.66572 5.66908 7.35793 5.97507ZM5.02293 2.12923C4.61126 2.12923 4.23793 2.2959 3.96376 2.5709C3.82392 2.70957 3.71293 2.87456 3.63719 3.05635C3.56144 3.23814 3.52244 3.43313 3.52244 3.63007C3.52244 3.827 3.56144 4.02199 3.63719 4.20378C3.71293 4.38557 3.82392 4.55056 3.96376 4.68923C4.10239 4.8293 4.26742 4.94049 4.44929 5.01637C4.63116 5.09225 4.82627 5.13132 5.02334 5.13132C5.22041 5.13132 5.41553 5.09225 5.5974 5.01637C5.77927 4.94049 5.9443 4.8293 6.08293 4.68923C6.22299 4.5506 6.33418 4.38558 6.41006 4.20371C6.48594 4.02183 6.52501 3.82672 6.52501 3.62965C6.52501 3.43258 6.48594 3.23747 6.41006 3.05559C6.33418 2.87372 6.22299 2.7087 6.08293 2.57007C5.80019 2.29103 5.42015 2.13267 5.02293 2.1284V2.12923ZM8.49626 6.9559L9.46793 8.2809C9.51709 8.34923 9.50709 8.43757 9.43793 8.48673C8.62376 9.1534 7.67209 9.59507 6.68126 9.8309L8.55543 13.4409C8.60459 13.5492 8.53543 13.6667 8.41793 13.6667H6.41626C6.3852 13.6652 6.35515 13.6552 6.32931 13.6379C6.30348 13.6206 6.28284 13.5965 6.26959 13.5684L5.02293 10.5859L3.76709 13.5584C3.75608 13.5881 3.73598 13.6136 3.70965 13.6313C3.68333 13.6489 3.65211 13.6578 3.62043 13.6567H1.61876C1.50126 13.6567 1.43209 13.5292 1.48126 13.4317L3.35543 9.8309C2.34716 9.59581 1.4049 9.13635 0.59876 8.48673C0.539593 8.43673 0.519593 8.33923 0.56876 8.28007L1.54043 6.9559C1.59876 6.87757 1.69709 6.86757 1.76543 6.92673C2.67876 7.70173 3.80709 8.21173 5.01376 8.21173C6.22043 8.21173 7.33876 7.71173 8.26126 6.92673C8.33959 6.8684 8.44709 6.87673 8.49626 6.9559Z" fill="white"/>
</svg>
