<svg width="9" height="15" viewBox="0 0 9 15" fill="none" xmlns="http://www.w3.org/2000/svg">
<path d="M6.86871 0.695312C7.2984 0.695312 7.66461 0.851562 7.96735 1.16406C8.27008 1.47656 8.42145 1.84766 8.42145 2.27734V12.8828C8.42145 13.3125 8.27008 13.6836 7.96735 13.9961C7.66461 14.3086 7.2984 14.4648 6.86871 14.4648H1.85895C1.42926 14.4648 1.06305 14.3086 0.760315 13.9961C0.457581 13.6836 0.306213 13.3125 0.306213 12.8828V2.27734C0.306213 1.84766 0.457581 1.47656 0.760315 1.16406C1.06305 0.851562 1.42926 0.695312 1.85895 0.695312H6.86871ZM4.36383 13.8203C4.6275 13.8203 4.85211 13.7324 5.03766 13.5566C5.22321 13.3809 5.31598 13.1611 5.31598 12.8975C5.31598 12.6338 5.22321 12.4092 5.03766 12.2236C4.85211 12.0381 4.6275 11.9453 4.36383 11.9453C4.10016 11.9453 3.88043 12.0381 3.70465 12.2236C3.52887 12.4092 3.44098 12.6338 3.44098 12.8975C3.44098 13.1611 3.52887 13.3809 3.70465 13.5566C3.88043 13.7324 4.10016 13.8203 4.36383 13.8203ZM7.19098 11.3301V2.57031H1.56598V11.3301H7.19098Z" fill="url(#paint0_linear_29_3109)"/>
<defs>
<linearGradient id="paint0_linear_29_3109" x1="4.36383" y1="14.4648" x2="4.36383" y2="0.695312" gradientUnits="userSpaceOnUse">
<stop stop-color="#75BB0C"/>
<stop offset="1" stop-color="#91D200"/>
</linearGradient>
</defs>
</svg>
