<?xml version="1.0" encoding="utf-8"?>
<!-- Generator: Adobe Illustrator 27.9.0, SVG Export Plug-In . SVG Version: 6.00 Build 0)  -->
<svg version="1.1" id="Слой_1" xmlns="http://www.w3.org/2000/svg" xmlns:xlink="http://www.w3.org/1999/xlink" x="0px" y="0px"
	 viewBox="0 0 20 20" style="enable-background:new 0 0 20 20;" xml:space="preserve">
<style type="text/css">
	.st0{fill:#FFFFFF;}
</style>
<path class="st0" d="M14.32,12.6L20,18.28L18.28,20l-5.68-5.68V13.4l-0.32-0.32c-1.39,1.18-3,1.77-4.83,1.77
	c-2.07,0-3.83-0.72-5.28-2.17C0.72,11.23,0,9.48,0,7.43c0-2.06,0.72-3.81,2.17-5.25C3.62,0.72,5.37,0,7.43,0
	c2.06,0,3.81,0.72,5.25,2.17s2.17,3.21,2.17,5.28c0,1.82-0.59,3.43-1.77,4.83l0.32,0.32H14.32z M7.45,12.6c1.43,0,2.65-0.5,3.65-1.5
	s1.5-2.22,1.5-3.65c0-1.43-0.5-2.65-1.5-3.65s-2.22-1.5-3.65-1.5s-2.65,0.5-3.65,1.5s-1.5,2.22-1.5,3.65c0,1.43,0.5,2.65,1.5,3.65
	S6.02,12.6,7.45,12.6z"/>
</svg>
