<svg width="17" height="16" viewBox="0 0 17 16" fill="none" xmlns="http://www.w3.org/2000/svg">
<path fill-rule="evenodd" clip-rule="evenodd" d="M1.24041 6.5242C5.60223 4.3939 8.51063 2.98944 9.96553 2.31065C14.1208 0.37438 14.9888 0.0381102 15.5469 0.0256002C15.7539 0.0210902 15.9569 0.0894701 16.1274 0.2211C16.247 0.33672 16.3232 0.49872 16.3408 0.67467C16.3709 0.8935 16.3793 1.11537 16.366 1.33626C16.1413 3.9951 15.166 10.4217 14.6706 13.3918C14.4613 14.643 14.0483 15.07 13.6478 15.1123C12.7799 15.2014 12.1129 14.4679 11.2757 13.8501C9.95853 12.8819 9.21483 12.286 7.93673 11.3351C6.45903 10.2403 7.41763 9.6444 8.25903 8.6653C8.47943 8.4088 12.3055 4.505 12.3808 4.1515C12.3908 4.0993 12.3896 4.0452 12.3775 3.9936C12.3654 3.942 12.3426 3.8943 12.3111 3.8544C12.2653 3.8223 12.2134 3.8026 12.1597 3.7969C12.1059 3.7912 12.0517 3.7996 12.0013 3.8215C11.8701 3.8538 9.76693 5.4121 5.69153 8.4964C5.09433 8.9562 4.55343 9.1804 4.06878 9.1689C3.53436 9.1549 2.50738 8.8295 1.74273 8.5433C0.806451 8.2024 0.0683202 8.0225 0.12692 7.4485C0.16134 7.1482 0.5325 6.8401 1.24041 6.5242Z" fill="white"/>
</svg>
