<?xml version="1.0" encoding="utf-8"?>
<!-- Generator: Adobe Illustrator 27.9.0, SVG Export Plug-In . SVG Version: 6.00 Build 0)  -->
<svg version="1.1" id="Слой_1" xmlns="http://www.w3.org/2000/svg" xmlns:xlink="http://www.w3.org/1999/xlink" x="0px" y="0px"
	 viewBox="0 0 25 25" style="enable-background:new 0 0 25 25;" xml:space="preserve">
<path d="M20.5,22.54c-0.55,0-1-0.45-1-1v-2c0-0.79-0.32-1.56-0.88-2.12s-1.33-0.88-2.12-0.88h-8c-0.8,0-1.55,0.31-2.12,0.88
	c-0.56,0.56-0.88,1.33-0.88,2.12v2c0,0.55-0.45,1-1,1s-1-0.45-1-1v-2c0-1.34,0.52-2.59,1.46-3.54c0.95-0.94,2.2-1.46,3.54-1.46h8
	c1.33,0,2.59,0.52,3.54,1.46s1.46,2.2,1.46,3.54v2C21.5,22.09,21.05,22.54,20.5,22.54z"/>
<path d="M12.5,12.54c-2.76,0-5-2.24-5-5s2.24-5,5-5s5,2.24,5,5S15.26,12.54,12.5,12.54z M12.5,4.54c-1.65,0-3,1.35-3,3s1.35,3,3,3
	s3-1.35,3-3S14.15,4.54,12.5,4.54z"/>
</svg>
