<?xml version="1.0" encoding="utf-8"?>
<!-- Generator: Adobe Illustrator 27.9.0, SVG Export Plug-In . SVG Version: 6.00 Build 0)  -->
<svg version="1.1" id="Слой_1" xmlns="http://www.w3.org/2000/svg" xmlns:xlink="http://www.w3.org/1999/xlink" x="0px" y="0px"
	 viewBox="0 0 20 11" style="enable-background:new 0 0 20 11;" xml:space="preserve">
<style type="text/css">
	.st0{fill:#FFFFFF;filter:url(#Adobe_OpacityMaskFilter);}
	.st1{mask:url(#mask0_129_4478_00000057842471511429853000000007844934136377373607_);}
	.st2{fill:#FFFFFF;}
</style>
<defs>
	<filter id="Adobe_OpacityMaskFilter" filterUnits="userSpaceOnUse" x="0.36" y="0" width="19.28" height="11">
		<feColorMatrix  type="matrix" values="1 0 0 0 0  0 1 0 0 0  0 0 1 0 0  0 0 0 1 0"/>
	</filter>
</defs>
<mask maskUnits="userSpaceOnUse" x="0.36" y="0" width="19.28" height="11" id="mask0_129_4478_00000057842471511429853000000007844934136377373607_">
	<path class="st0" d="M19.65,13.55H0.36V-4.42h19.29V13.55z"/>
</mask>
<g class="st1">
	<path class="st2" d="M19.61,0.81c0.16,0.42-0.34,1.4-1.51,2.95c-0.16,0.21-0.37,0.49-0.63,0.84c-0.54,0.66-0.84,1.09-0.91,1.3
		c-0.12,0.28-0.07,0.55,0.14,0.81c0.12,0.14,0.39,0.42,0.81,0.84h0.04v0.04c0.96,0.87,1.6,1.6,1.93,2.21l0.07,0.14l0.07,0.26
		c0.05,0.18,0.05,0.29,0,0.33c-0.05,0.05-0.13,0.13-0.25,0.26c-0.12,0.13-0.32,0.17-0.6,0.12l-2.56,0.07
		c-0.16,0.02-0.36,0-0.58-0.07c-0.22-0.07-0.39-0.14-0.51-0.21l-0.21-0.14c-0.21-0.14-0.44-0.35-0.7-0.63
		c-0.26-0.28-0.49-0.54-0.68-0.77c-0.2-0.23-0.4-0.43-0.61-0.58c-0.21-0.15-0.4-0.2-0.56-0.16c-0.02,0-0.05,0.01-0.09,0.04
		c-0.04,0.02-0.09,0.08-0.18,0.16c-0.08,0.08-0.15,0.18-0.21,0.3c-0.06,0.12-0.11,0.29-0.16,0.51c-0.05,0.22-0.07,0.49-0.07,0.79
		c0,0.09-0.01,0.18-0.04,0.26c-0.02,0.08-0.05,0.15-0.07,0.19l-0.04,0.04c-0.14,0.14-0.33,0.21-0.56,0.21H9.81
		c-0.49,0.05-0.99,0-1.49-0.14c-0.5-0.14-0.94-0.32-1.32-0.54c-0.37-0.22-0.71-0.44-1.02-0.67c-0.3-0.22-0.54-0.42-0.7-0.58
		L5.03,8.74C4.96,8.7,4.87,8.6,4.75,8.46C4.63,8.32,4.39,8.02,4.03,7.55C3.67,7.08,3.31,6.58,2.96,6.04C2.61,5.5,2.2,4.8,1.73,3.92
		c-0.47-0.88-0.9-1.78-1.3-2.72C0.38,1.08,0.36,0.99,0.36,0.92c0-0.07,0.01-0.13,0.04-0.18l0.04-0.04C0.52,0.57,0.71,0.5,0.99,0.5
		h2.77c0.07,0,0.14,0.02,0.21,0.05l0.18,0.09l0.04,0.04c0.12,0.07,0.2,0.18,0.25,0.32c0.14,0.33,0.3,0.67,0.47,1.04
		c0.18,0.36,0.31,0.64,0.4,0.82l0.14,0.28c0.21,0.4,0.4,0.74,0.58,1.04c0.18,0.29,0.33,0.52,0.47,0.68
		c0.14,0.16,0.28,0.29,0.42,0.39c0.14,0.09,0.26,0.14,0.35,0.14s0.19-0.01,0.28-0.04l0.04-0.05l0.12-0.23
		C7.8,4.91,7.85,4.75,7.86,4.6C7.87,4.45,7.9,4.18,7.95,3.8c0.05-0.39,0.05-0.81,0-1.26c-0.02-0.26-0.06-0.5-0.11-0.72
		C7.79,1.59,7.75,1.43,7.7,1.34L7.66,1.23C7.5,1,7.21,0.85,6.79,0.78c-0.07,0-0.05-0.08,0.07-0.25C6.97,0.41,7.1,0.32,7.24,0.25
		C7.59,0.06,8.39-0.02,9.63,0c0.54,0,1,0.05,1.37,0.14c0.12,0.02,0.22,0.06,0.32,0.12c0.09,0.06,0.16,0.14,0.21,0.25
		c0.05,0.11,0.08,0.21,0.11,0.32c0.02,0.11,0.04,0.26,0.04,0.46v0.54c-0.02,0.19-0.04,0.42-0.04,0.7v0.84
		c0,0.07-0.01,0.21-0.02,0.42C11.6,4.01,11.6,4.17,11.6,4.29c0,0.12,0.01,0.25,0.04,0.4c0.02,0.15,0.06,0.28,0.12,0.39
		c0.06,0.11,0.13,0.18,0.23,0.23c0.05,0.02,0.1,0.04,0.16,0.05c0.06,0.01,0.15-0.02,0.26-0.11c0.12-0.08,0.25-0.2,0.39-0.35
		c0.14-0.15,0.32-0.38,0.53-0.68c0.21-0.3,0.43-0.66,0.67-1.05c0.4-0.7,0.76-1.46,1.09-2.28c0.02-0.05,0.05-0.1,0.09-0.16
		c0.04-0.06,0.08-0.1,0.12-0.12h0.04l0.04-0.04l0.14-0.04h0.21l2.88-0.04c0.26-0.02,0.47-0.01,0.65,0.04
		c0.18,0.05,0.28,0.11,0.3,0.18L19.61,0.81z"/>
</g>
</svg>
