<?xml version="1.0" encoding="utf-8"?>
<!-- Generator: Adobe Illustrator 27.9.0, SVG Export Plug-In . SVG Version: 6.00 Build 0)  -->
<svg version="1.1" id="Слой_1" xmlns="http://www.w3.org/2000/svg" xmlns:xlink="http://www.w3.org/1999/xlink" x="0px" y="0px"
	 viewBox="0 0 24 21" style="enable-background:new 0 0 24 21;" xml:space="preserve">
<path d="M12,20.77L12,20.77c-0.27,0-0.52-0.11-0.71-0.29l-8.84-8.84c-1.23-1.23-1.9-2.86-1.9-4.6s0.68-3.37,1.9-4.6
	s2.86-1.9,4.6-1.9s3.37,0.68,4.6,1.9L12,2.79l0.35-0.35c0.61-0.61,1.32-1.08,2.11-1.41c1.58-0.66,3.39-0.66,4.97,0
	c0.79,0.33,1.5,0.8,2.11,1.41s1.08,1.31,1.41,2.11c0.33,0.79,0.5,1.63,0.5,2.49s-0.17,1.69-0.5,2.49c-0.33,0.79-0.8,1.5-1.41,2.11
	l-8.84,8.84C12.52,20.66,12.27,20.77,12,20.77z"/>
</svg>
