<svg width="97" height="97" viewBox="0 0 97 97" fill="none" xmlns="http://www.w3.org/2000/svg">
<path d="M67.8774 1.74245C68.433 1.40417 69.6085 0.873132 70.4929 0.563199C72.018 0.028377 72.2523 2.95137e-05 75.123 2.95137e-05C77.2056 -0.00186032 78.4699 0.0869618 79.1861 0.279725C79.7569 0.434691 80.7358 0.799428 81.3594 1.09235C81.9831 1.38339 82.9185 1.91254 83.4382 2.26594C83.958 2.61934 84.797 3.29401 85.3054 3.76646C85.8119 4.23892 86.5943 5.1347 87.0422 5.75835C87.4919 6.38199 88.1515 7.61605 88.5106 8.4986C88.8677 9.38116 89.2722 10.6152 89.4082 11.2389C89.5443 11.8625 89.6501 13.2648 89.6445 14.3571C89.6407 15.5269 89.5065 16.8838 89.3194 17.6643C89.1455 18.3919 88.6069 19.796 88.1213 20.7825C87.3653 22.3208 86.9798 22.8349 85.4339 24.3732C84.0695 25.7301 83.2568 26.3613 82.1154 26.9585C81.2838 27.3931 79.9666 27.928 79.1861 28.1491C78.4075 28.3683 77.0468 28.597 76.1624 28.6574C75.278 28.7179 73.94 28.6707 73.1859 28.5535C72.4319 28.4382 71.1997 28.1245 70.4457 27.8599C69.6916 27.5954 68.6503 27.1323 68.1306 26.8281C67.6109 26.5257 66.6962 25.8907 66.099 25.4202C65.5019 24.9477 64.608 24.0444 64.1147 23.4094C63.6215 22.7763 62.9392 21.7766 62.601 21.1888C62.2627 20.6011 61.7524 19.3973 61.469 18.5147C61.0022 17.0577 60.9549 16.6532 60.9663 14.1681C60.9795 11.5941 61.0154 11.3201 61.5899 9.6325C61.9263 8.64412 62.446 7.41195 62.7446 6.89225C63.0432 6.37254 63.6914 5.47865 64.1828 4.90792C64.6741 4.33719 65.4811 3.52835 65.9724 3.11258C66.4657 2.69682 67.3237 2.08073 67.8774 1.74245Z" fill="url(#paint0_linear_121_15)"/>
<path d="M30.0373 82.521C30.7044 79.6957 31.3186 77.1935 31.4037 76.9592L31.5549 76.534H48.2836C64.0259 76.534 65.0219 76.5529 65.1787 76.8647C65.2695 77.0461 65.4433 77.6641 65.5643 78.2348C65.6852 78.8056 65.8232 79.4651 65.9574 80.1247L39.7832 80.1266L39.0424 83.292C38.6342 85.0307 38.2297 86.7315 37.9878 87.684L35.3893 87.7331C33.0554 87.7766 32.685 87.8314 31.7514 88.2661C31.1788 88.5325 30.385 89.0428 29.9844 89.3981C29.5856 89.7553 28.9922 90.6 28.6672 91.2747C28.155 92.3443 28.0643 92.7658 27.8772 96.5681L17.3887 96.5662V94.6764C17.3887 93.1966 17.4775 92.5503 17.7988 91.6999C18.0633 90.9969 18.549 90.2598 19.1689 89.6154C19.7075 89.0541 20.5428 88.4343 21.0738 88.1999C21.911 87.8295 22.4062 87.7747 28.8222 87.6557L30.0373 82.521Z" fill="#2F4055"/>
<path d="M3.78162 9.00508C4.14635 8.78397 4.95331 8.41356 5.57696 8.18299C6.69385 7.76911 6.85637 7.76155 16.6797 7.7521C22.1621 7.74643 26.6505 7.76344 26.6543 7.7899C26.6561 7.81636 26.4464 8.30583 26.1856 8.87657C25.9248 9.4492 25.5827 10.5113 25.4277 11.2389C25.2425 12.1026 25.1424 13.6258 25.1367 18.7039H17.5774L17.4848 19.3181C17.4338 19.6564 16.3225 30.3493 15.0167 43.0832C13.7127 55.8152 12.6052 66.425 12.4748 67.0845H0.00195312L0.00384296 40.8626C0.00573279 19.354 0.0529786 14.4876 0.26275 13.7902C0.402597 13.3234 0.71442 12.5561 0.952539 12.0894C1.19255 11.6226 1.7784 10.8269 2.25463 10.3242C2.73087 9.82151 3.41688 9.22809 3.78162 9.00508Z" fill="#F3F3F5"/>
<path d="M28.6802 10.5775C28.9069 10.0067 29.3567 9.1336 29.6799 8.64034L30.2695 7.74265H44.224L44.6757 8.35686C44.9233 8.69515 45.2956 9.31124 45.5015 9.72701C45.7075 10.1428 46.0137 11.0348 46.1819 11.7114C46.3973 12.5732 46.4899 13.7997 46.4918 18.7039H28.1604L28.2153 15.1604C28.2625 12.0421 28.3192 11.4922 28.6802 10.5775Z" fill="#F3F3F5"/>
<path d="M48.4459 9.06556C48.1964 8.49482 47.9961 7.96188 47.998 7.88439C47.9999 7.80691 51.1918 7.74265 55.0887 7.74265C58.9874 7.74265 62.1755 7.78612 62.1755 7.83715C62.1755 7.89006 61.9072 8.71782 61.5765 9.67977C61.0152 11.3164 60.9774 11.6018 60.966 14.1682C60.9547 16.6534 61.0019 17.0578 61.4687 18.5149C61.7522 19.3994 62.2606 20.6013 62.5989 21.1891C62.939 21.7768 63.6194 22.7766 64.1126 23.4097C64.6077 24.0447 65.4997 24.948 66.0969 25.4205C66.696 25.8911 67.6088 26.5261 68.1285 26.8284C68.6482 27.1327 69.6914 27.5957 70.4435 27.8603C71.1976 28.1249 72.4316 28.4386 73.1838 28.5539C73.9378 28.6711 75.2777 28.7183 76.1603 28.6578C77.0447 28.5974 78.4054 28.3687 79.184 28.1495C79.9645 27.9283 81.2817 27.3935 82.1133 26.9588C83.2301 26.3749 84.0768 25.7248 85.3468 24.468C86.4977 23.3303 87.3084 22.3287 87.7941 21.4442C88.1947 20.7166 88.7125 19.5695 88.9469 18.8929C89.1793 18.2163 89.4685 16.8991 89.5894 15.9636C89.7576 14.6652 89.7576 13.8602 89.5894 12.5618C89.4666 11.6263 89.1699 10.3091 88.9299 9.63252C88.6899 8.95595 88.4177 8.23969 88.327 8.03747C88.1702 7.69163 88.2231 7.6784 89.3891 7.79557C90.208 7.87746 91.0585 8.1326 91.9404 8.56097C92.668 8.91437 93.6469 9.58149 94.1137 10.0445C94.5824 10.5056 95.2117 11.3051 95.5141 11.8172C95.8145 12.3313 96.1755 13.1344 96.3153 13.6012C96.5194 14.2929 96.5686 19.3597 96.5705 67.0845H71.6247L71.5453 66.4703C71.5 66.132 70.7138 58.7767 68.1285 34.3898H63.3567C58.9401 34.3898 58.5849 34.3652 58.5849 34.0591C58.5849 33.8776 58.2447 30.4967 57.8289 26.5468C57.4132 22.597 57.073 19.216 57.073 19.0346C57.073 18.7303 56.7631 18.7039 49.3247 18.7039V15.3966C49.3247 13.5786 49.2302 11.6433 49.1111 11.0972C48.9939 10.551 48.6954 9.63819 48.4459 9.06556Z" fill="#F3F3F5"/>
<path d="M15.0387 42.8944C16.4221 29.6426 17.5597 18.7777 17.5654 18.7513C17.5711 18.7248 19.2776 18.704 25.1361 18.704V21.1609C25.1361 22.6595 25.2211 23.784 25.3553 24.0429C25.4762 24.2773 25.7106 24.5721 25.875 24.6987C26.0413 24.8253 26.3248 24.9312 26.5062 24.9349C26.6876 24.9387 27.0524 24.8348 27.3132 24.7044C27.5758 24.574 27.8744 24.213 27.9784 23.9012C28.0823 23.5894 28.1655 22.2929 28.1598 18.704H46.4912V21.3499C46.4912 23.9201 46.5044 24.0089 46.9636 24.4681C47.2244 24.7289 47.627 24.9444 47.8613 24.9463C48.0956 24.9501 48.5209 24.78 49.3259 24.1847V18.704H53.2001C56.7643 18.704 57.0742 18.7305 57.0742 19.0348C57.0742 19.2162 57.4144 22.5972 57.8283 26.547C58.244 30.4968 58.5842 33.8778 58.5861 34.0592C58.5861 34.3711 57.9454 34.3899 36.9475 34.3899L35.2599 50.2176C34.332 58.9223 33.5666 66.3004 33.5458 67.1792L23.0573 67.1244C17.2876 67.0922 12.5574 67.0507 12.546 67.0299C12.5328 67.0072 13.6553 56.148 15.0387 42.8944Z" fill="#75BB0C"/>
<path d="M33.5343 66.4698C33.5797 66.1316 34.3621 58.7763 35.2749 50.1228L36.9322 34.39H38.7824C40.419 34.39 40.6325 34.4278 40.6325 34.7207C40.6306 34.9021 39.8672 42.195 38.9317 50.926C37.9962 59.657 37.2327 66.8648 37.2308 66.9423C37.2308 67.0198 36.3804 67.084 33.4512 67.084L33.5343 66.4698Z" fill="#90D101"/>
<path d="M38.9323 50.926C39.8678 42.195 40.6313 34.9021 40.6331 34.7207C40.6331 34.4089 41.4136 34.39 68.1302 34.39L69.797 50.1228C70.7136 58.7763 71.4998 66.1316 71.6264 67.084H54.4289C44.9703 67.084 37.2314 67.0198 37.2314 66.9423C37.2333 66.8648 37.9968 59.657 38.9323 50.926Z" fill="#AEFD00"/>
<path d="M34.1134 2.00706C34.737 1.84831 35.5024 1.68012 35.8142 1.63098C36.126 1.58184 37.1031 1.58184 37.9875 1.63287C38.9022 1.68579 40.2043 1.92013 41.0112 2.17526C41.7917 2.42094 42.9597 2.96712 43.6098 3.38667C44.2599 3.80811 45.1424 4.47145 45.5733 4.86077C46.0023 5.25008 46.711 6.07973 47.1475 6.70339C47.5841 7.32704 48.168 8.38915 48.444 9.06572C48.718 9.7423 49.0279 10.6759 49.13 11.1446C49.2339 11.6114 49.3189 14.7372 49.3265 24.1847L48.8068 24.5683C48.5214 24.78 48.0962 24.9501 47.8619 24.9463C47.6275 24.9444 47.225 24.7271 46.4918 23.9957L46.4899 18.4678C46.4899 14.0323 46.4294 12.698 46.1856 11.7115C46.0193 11.035 45.6394 10.0144 45.3408 9.4437C45.0441 8.87107 44.343 7.93558 43.7836 7.36484C43.2242 6.79221 42.2661 6.05327 41.6538 5.72255C41.0396 5.38993 39.9851 4.98739 39.3104 4.82675C38.6357 4.66611 37.6984 4.53382 37.2316 4.53193C36.7648 4.53004 35.8709 4.66044 35.2473 4.82297C34.6236 4.98361 33.6503 5.34646 33.0834 5.62616C32.5183 5.90775 31.53 6.64669 30.8893 7.27035C30.2486 7.894 29.5097 8.82949 29.247 9.3492C28.9844 9.86892 28.631 10.7628 28.4628 11.3336C28.2114 12.1897 28.1585 13.3425 28.1623 17.8536C28.1642 20.9927 28.0867 23.5761 27.979 23.9012C27.875 24.213 27.5764 24.574 27.3137 24.7044C27.0529 24.8348 26.6882 24.9387 26.5068 24.9349C26.3254 24.9312 26.0419 24.8253 25.8756 24.6987C25.7112 24.5721 25.4768 24.2773 25.3559 24.0429C25.2047 23.7481 25.1385 21.9282 25.1404 18.0898C25.1423 13.9416 25.2122 12.2313 25.4239 11.2391C25.577 10.5115 26.0513 9.19234 26.4765 8.30978C27.1002 7.01522 27.55 6.40857 28.7916 5.18204C29.8197 4.16907 30.7747 3.43454 31.6566 2.97846C32.3842 2.60237 33.4897 2.16581 34.1134 2.00706Z" fill="#415671"/>
<path d="M0.258907 70.203C0.120949 69.6833 0.0056695 68.7704 0.00377966 68.1732L0 67.0866L96.5704 67.0847V68.3131C96.5723 68.9897 96.4476 69.9875 96.2964 70.5337C96.1452 71.0799 95.686 72.0361 95.2778 72.6598C94.8696 73.2835 94.1646 74.0999 93.7111 74.476C93.2575 74.8502 92.5262 75.3396 92.0839 75.5626C91.6417 75.7856 90.7913 76.0956 90.1941 76.2524C89.2416 76.5019 84.054 76.5359 48.2871 76.5359C11.8077 76.5359 7.34578 76.5057 6.33283 76.2411C5.70918 76.0767 4.78505 75.7157 4.27669 75.436C3.77021 75.1563 2.93302 74.5024 2.41521 73.9827C1.8955 73.463 1.25674 72.6125 0.992162 72.0928C0.727585 71.5731 0.398755 70.7227 0.258907 70.203Z" fill="#415671"/>
<path d="M39.7828 80.1305L52.9172 80.0813C64.466 80.0378 66.0591 80.0662 66.1158 80.3157C66.1517 80.4706 66.5164 82.0449 66.9284 83.8119C67.3423 85.5789 67.7165 87.1721 67.7637 87.3554C67.8393 87.6521 68.1927 87.6899 71.2958 87.7334C74.414 87.775 74.826 87.8203 75.5952 88.1964C76.0638 88.427 76.816 88.9372 77.2696 89.3303C77.7382 89.7385 78.3335 90.5361 78.6529 91.1824C79.131 92.1519 79.2293 92.6225 79.4693 96.5704H27.8769L27.9771 94.5369C28.0659 92.768 28.1547 92.3447 28.6687 91.2769C28.9919 90.6003 29.5853 89.7555 29.9841 89.4003C30.3847 89.0431 31.1803 88.5347 31.7511 88.2682C32.6846 87.8317 33.055 87.7787 37.9875 87.6861L38.1444 87.0719C38.2294 86.7337 38.6338 85.0328 39.7828 80.1305Z" fill="#415671"/>
<path d="M77.4785 10.5681C78.8486 7.81269 79.7425 6.22898 80.0052 6.09102C80.2301 5.97385 80.5627 5.8718 80.7441 5.86613C80.9255 5.85857 81.2922 6.04378 81.5586 6.27812C81.8667 6.54837 82.0462 6.90934 82.0538 7.2703C82.0613 7.63694 80.8216 10.4075 78.5406 15.1133C76.6016 19.1179 74.827 22.5423 74.5965 22.7275C74.3659 22.9146 73.9861 23.0639 73.7517 23.0583C73.5174 23.0545 73.1186 22.8598 72.8654 22.6255C72.6103 22.3911 71.5066 20.5844 70.4124 18.6095C69.046 16.1432 68.4205 14.826 68.4167 14.4046C68.4148 14.002 68.5604 13.6581 68.8382 13.4086C69.0725 13.1988 69.5185 13.0268 69.8303 13.025C70.1781 13.025 70.5522 13.1913 70.7979 13.454C71.019 13.6921 71.7598 14.9054 73.6856 18.4205L74.5209 16.6252C74.982 15.6386 76.3124 12.9116 77.4785 10.5681Z" fill="white"/>
<path d="M46.5589 40.3903C46.6251 40.0009 46.85 39.5115 47.0579 39.3036C47.2922 39.0692 47.6872 38.9256 48.0973 38.9256C48.6 38.9256 48.8513 39.0503 49.1423 39.4453C49.4995 39.9253 49.5279 40.2334 49.5184 43.5558C49.5127 46.2148 49.5846 47.4036 49.7962 48.1387C49.9852 48.7945 50.3537 49.4238 50.8848 49.9927C51.4101 50.5559 52.0319 50.9811 52.6801 51.2211C53.2263 51.4233 53.9916 51.5896 54.3809 51.5896C54.7703 51.5915 55.4733 51.4649 55.9401 51.3099C56.4087 51.1549 57.1307 50.7411 57.5464 50.3895C57.9622 50.038 58.5159 49.335 58.7748 48.8266C59.2284 47.9403 59.2492 47.7381 59.3096 43.8393C59.3682 39.9707 59.3909 39.7553 59.7821 39.3452C60.0315 39.0844 60.4152 38.9162 60.7591 38.9162C61.0974 38.9162 61.4981 39.09 61.7532 39.3452C62.1765 39.7723 62.1803 39.8233 62.082 48.6792L61.3941 50.0872C60.9141 51.0661 60.3982 51.771 59.6933 52.406C59.1358 52.9087 58.2551 53.5211 57.7354 53.7686C57.2157 54.0181 56.2387 54.3035 55.5621 54.4055C54.7532 54.5265 53.9463 54.5265 53.1998 54.4017C52.5762 54.2978 51.6199 54.0049 51.0737 53.7516C50.5276 53.4965 49.6488 52.8842 49.1215 52.3909C48.5943 51.8977 47.9442 51.1115 47.6758 50.6428C47.4075 50.1741 47.0673 49.4106 46.918 48.9419C46.746 48.3995 46.61 46.8271 46.5419 44.5952C46.4852 42.6713 46.4928 40.7796 46.5589 40.3903Z" fill="white"/>
<path d="M75.6046 38.9162C75.6084 38.5722 75.7955 38.1565 76.0677 37.8768L76.5231 37.4138L84.0427 37.4081C91.3167 37.4005 91.5813 37.4138 92.084 37.7861C92.4601 38.0639 92.6056 38.3379 92.6112 38.7839C92.6169 39.1222 92.4544 39.6116 91.8818 40.343L84.5417 40.3978C80.505 40.4281 77.0107 40.4073 76.7763 40.3506C76.542 40.2939 76.181 40.0784 75.9732 39.8706C75.7539 39.6513 75.599 39.2507 75.6046 38.9162Z" fill="#415671"/>
<path d="M78.6473 45.3511C78.7455 45.0903 78.9667 44.7709 79.1424 44.6424C79.3805 44.4647 80.9944 44.4062 85.6529 44.4062C91.5964 44.4062 91.8629 44.4213 92.2257 44.7841C92.4601 45.0166 92.6037 45.4134 92.6037 45.8235C92.6037 46.2695 92.4657 46.6078 92.1785 46.8667C91.7703 47.2315 91.5095 47.2466 85.6585 47.2447C82.306 47.2409 79.4202 47.1766 79.2463 47.0992C79.0706 47.0198 78.8249 46.7023 78.6983 46.3905C78.5433 46.005 78.5263 45.6705 78.6473 45.3511Z" fill="#415671"/>
<defs>
<linearGradient id="paint0_linear_121_15" x1="75.3048" y1="0" x2="75.3048" y2="28.6838" gradientUnits="userSpaceOnUse">
<stop stop-color="#75BB0C"/>
<stop offset="1" stop-color="#91D200"/>
</linearGradient>
</defs>
</svg>
