<svg width="110" height="73" viewBox="0 0 110 73" fill="none" xmlns="http://www.w3.org/2000/svg">
<path d="M81.6367 51.9171C81.6346 51.8296 83.2909 45.5848 85.3188 38.0397L89.0073 24.3225H95.1512C100.915 24.3246 101.338 24.3503 101.993 24.7495C102.459 25.0342 102.767 25.4434 102.919 25.9771C103.044 26.4169 103.117 27.7854 103.014 31.2612L92.67 31.4747L91.772 32.0618C91.2801 32.3842 90.6421 33.0097 90.3542 33.4495C90.0664 33.8893 89.4777 35.5461 89.0438 37.1324C88.6099 38.7187 88.2404 40.3605 88.2232 40.7832C88.206 41.2059 88.337 41.8187 88.5132 42.1432C88.6893 42.4656 89.1254 42.8883 89.4799 43.0804C90.0298 43.3793 91.104 43.4391 103.443 43.5523L106.236 45.5378C107.772 46.6288 109.25 47.803 109.519 48.1446C109.871 48.5908 110.006 49.0413 110 49.7288C109.993 50.2582 109.886 51.0247 109.529 52.184L95.5851 52.1306C87.9138 52.1007 81.6367 52.0046 81.6367 51.9171Z" fill="#DCFF8F"/>
<path d="M66.2871 24.2157C66.3129 22.4543 66.3494 20.9364 66.3688 20.8446C66.3881 20.7506 67.1013 20.7015 67.952 20.7378C69.4773 20.7997 69.4987 20.8083 69.6341 21.4402C69.7114 21.7925 69.7823 23.0415 69.7973 24.2157C69.8102 25.3899 69.6813 27.2645 69.5116 28.3789C69.3398 29.4934 68.9531 31.2483 68.6523 32.2752C68.3516 33.3022 67.7372 34.9354 67.2882 35.9047C66.8392 36.874 65.9348 38.4816 65.2775 39.4808C64.6223 40.48 63.5138 41.9296 62.8178 42.7046C62.1217 43.4775 60.9724 44.6197 60.2635 45.2431C59.5546 45.8644 58.2012 46.8764 57.256 47.4912C56.3108 48.1061 54.9574 48.8982 54.2485 49.2505C53.5396 49.6049 52.1368 50.1813 51.1336 50.5336C50.1282 50.8859 48.4848 51.3513 47.4816 51.5669C46.1175 51.8594 44.7297 51.9619 42.0036 51.9662C39.2582 51.9683 37.8983 51.8743 36.5256 51.5797C35.5203 51.3662 33.8769 50.9221 32.8736 50.5955C31.3441 50.098 30.9467 50.0383 30.4204 50.239C30.0616 50.3735 29.6728 50.7492 29.5117 51.1164C29.357 51.4687 28.6975 53.751 28.0444 56.187C27.3935 58.623 26.8608 60.8818 26.8651 61.2042C26.8672 61.5266 27.0369 61.9621 27.241 62.1714C27.5632 62.5044 28.0208 62.5514 30.8865 62.545C32.6889 62.5407 34.1626 62.5877 34.1626 62.6453C34.1626 62.703 33.9177 63.1129 33.6169 63.5527C33.3162 63.9925 32.9059 64.7654 32.3366 66.183L27.9327 66.1723C24.8414 66.1638 23.3699 66.0826 22.9918 65.8926C22.6008 65.6983 22.4354 65.4208 22.386 64.8828C22.3452 64.4238 23.3162 60.4335 24.9359 54.4257C26.3753 49.0839 27.6126 44.5983 27.6878 44.4574C27.7823 44.2845 28.1927 44.4361 29.0068 44.9506C29.6556 45.3627 30.719 45.9434 31.3699 46.2444C32.0186 46.5476 33.2045 47.0215 34.0015 47.3012C34.7985 47.5788 36.1518 47.9673 37.009 48.1616C38.1003 48.4093 39.5654 48.516 41.8962 48.516C44.227 48.516 45.6921 48.4093 46.7834 48.1616C47.6405 47.9673 48.9445 47.6087 49.6835 47.3653C50.4225 47.1219 51.7028 46.5967 52.5299 46.1996C53.357 45.8025 54.6137 45.0979 55.3226 44.6304C56.0315 44.1649 57.2023 43.2725 57.9241 42.647C58.6437 42.0214 59.7393 40.9326 60.358 40.228C60.9767 39.5235 61.8639 38.3706 62.3323 37.6661C62.7984 36.9615 63.503 35.7126 63.8962 34.8906C64.2871 34.0686 64.807 32.8197 65.0476 32.1151C65.2904 31.4106 65.6577 30.0655 65.8639 29.1262C66.111 28.0074 66.2571 26.3123 66.2871 24.2157Z" fill="url(#paint0_linear_121_20)"/>
<path d="M46.5149 66.168V64.3533V62.5386H60.8543C74.4053 62.5386 76.1872 60.5599 76.0949 60.9122C76.0412 61.1171 74.8478 63.9348 74.3344 66.168H46.5149Z" fill="url(#paint1_linear_121_20)"/>
<path d="M36.5441 60.6171C37.1822 60.2072 38.1897 59.7055 38.7804 59.5027C39.3734 59.302 40.4367 59.1355 41.1456 59.1333C41.8546 59.1312 42.8213 59.2465 43.2939 59.3895C43.7751 59.5347 44.5935 60.0749 45.1542 60.6129C45.8481 61.2833 46.2326 61.8725 46.4131 62.5386C46.5592 63.0809 46.6258 64.1036 46.5635 64.8871C46.4861 65.8692 46.2498 66.6805 45.7557 67.6626C45.3411 68.4845 44.5656 69.5221 43.8524 70.2096C43.0984 70.9376 42.05 71.6507 41.0382 72.1268C39.8589 72.6819 39.0533 72.9082 38.0307 72.9744C37.0404 73.0384 36.353 72.9573 35.6677 72.6947C35.1349 72.4898 34.368 72.067 33.9598 71.7553C33.5302 71.4244 32.9996 70.6942 32.6945 70.011C32.2649 69.0503 32.1875 68.5849 32.2606 67.4491C32.3229 66.4798 32.5484 65.6429 33.0125 64.6736C33.3755 63.9114 34.0586 62.8546 34.527 62.3251C34.9974 61.7978 35.904 61.0292 36.5441 60.6171Z" fill="#5D5360"/>
<path d="M90.3658 60.7794C90.8255 60.457 91.7793 59.9553 92.4882 59.6628C93.47 59.2593 94.1617 59.1333 95.3883 59.1333C96.4904 59.1312 97.2723 59.255 97.8588 59.5219C98.3314 59.7354 99.0618 60.2862 99.4828 60.7431C99.9039 61.2021 100.379 61.9622 100.535 62.4319C100.718 62.9806 100.78 63.8196 100.707 64.7803C100.63 65.8158 100.413 66.6356 100.003 67.4491C99.6762 68.096 99.0962 69.0076 98.7138 69.4773C98.3314 69.947 97.4979 70.6921 96.8642 71.1362C96.2304 71.5781 95.0575 72.1781 94.2605 72.4705C93.369 72.7951 92.355 73 91.6289 73C90.7116 73 90.1488 72.8442 89.1155 72.3062C88.0887 71.7724 87.6311 71.371 87.1284 70.5619C86.5398 69.6182 86.4732 69.3364 86.4732 67.7864C86.4732 66.309 86.5677 65.8606 87.1284 64.6736C87.4872 63.9114 88.1767 62.8546 88.6579 62.3251C89.1391 61.7978 89.9082 61.1018 90.3658 60.7794Z" fill="#5D5360"/>
<path d="M76.16 59.0693C77.1632 55.3416 77.986 52.2416 77.986 52.184C77.986 52.1263 78.7593 52.0772 79.7046 52.0772C80.6498 52.0772 81.4253 52.1498 81.4274 52.2373C81.4296 52.3249 80.9827 54.0777 80.4328 56.1337C79.4876 59.6671 79.4511 59.9147 79.7303 60.7175C79.9194 61.2576 80.2996 61.7423 80.7787 62.0582C81.4833 62.5194 81.7432 62.5514 88.19 62.5536L86.4715 66.1489L80.4027 66.1595C77.0644 66.1638 74.334 66.0955 74.334 66.0079C74.3318 65.9204 75.1546 62.7969 76.16 59.0693Z" fill="#73AA01"/>
<path d="M100.65 66.2172V64.379V62.5407L103.604 62.5386C106.413 62.5386 106.557 62.56 106.557 62.9656C106.557 63.2004 106.194 63.7876 105.752 64.2722C105.309 64.7568 104.56 65.3461 104.087 65.5831C103.614 65.8201 102.648 66.0613 100.65 66.2172Z" fill="#73AA01"/>
<path d="M34.27 1.19213C35.2152 0.88469 36.762 0.493989 37.7072 0.327461C38.6524 0.158797 40.4397 0.0114839 41.6814 0.000808997C42.9231 -0.0120009 44.8071 0.128908 45.8704 0.310381C46.9338 0.491854 48.4333 0.827046 49.2002 1.05122C49.9671 1.27753 51.5632 1.93296 52.7448 2.50941C53.9263 3.08585 55.5224 4.01884 56.2893 4.58247C57.0562 5.14824 58.2507 6.14528 58.9402 6.80072C59.632 7.45402 60.7125 8.66242 61.342 9.48438C61.9735 10.3064 62.8156 11.5553 63.2131 12.2599C63.6126 12.9644 64.2421 14.2603 64.6137 15.1421C64.9832 16.0217 65.4988 17.608 65.7587 18.6648C66.1411 20.2233 66.2335 21.231 66.2399 24.0022C66.2464 26.5087 66.1475 27.873 65.8683 29.1262C65.6599 30.0656 65.2904 31.4106 65.0476 32.1152C64.807 32.8197 64.2872 34.0687 63.8962 34.8906C63.5031 35.7126 62.7985 36.9616 62.3323 37.6661C61.864 38.3706 60.9768 39.5235 60.3581 40.2281C59.7394 40.9326 58.6438 42.0215 57.9241 42.647C57.2023 43.2726 56.0315 44.165 55.3226 44.6304C54.6137 45.098 53.357 45.8025 52.5299 46.1996C51.7029 46.5967 50.4225 47.1219 49.6835 47.3653C48.9445 47.6087 47.6406 47.9652 46.7834 48.1595C45.7308 48.3965 44.1798 48.5161 42.0036 48.5246C40.1669 48.5331 38.227 48.4221 37.4924 48.2684C36.7834 48.1211 35.4301 47.7496 34.4848 47.4464C33.5396 47.1433 32.2335 46.6437 31.5804 46.3363C30.9274 46.0309 29.574 45.2987 28.5729 44.7137C27.3549 44.0006 26.0681 42.9737 24.6889 41.618C23.5547 40.5014 22.2378 39.0111 21.7609 38.3066C21.2861 37.6021 20.5042 36.257 20.0273 35.3176C19.5504 34.3782 18.9145 32.888 18.6159 32.0084C18.3173 31.1288 17.922 29.5425 17.7373 28.4857C17.5525 27.4289 17.4043 25.6035 17.4043 24.4292C17.4064 23.255 17.5482 21.4296 17.7222 20.3728C17.8941 19.316 18.2872 17.6827 18.5944 16.7433C18.9016 15.8039 19.6556 14.0874 20.2679 12.9281C20.8801 11.7688 22.0079 10.0459 22.777 9.09795C23.5461 8.15216 24.7856 6.84342 25.5353 6.19011C26.2851 5.53467 27.4451 4.63158 28.1132 4.17896C28.7813 3.72848 30.053 2.99618 30.9403 2.55424C31.8253 2.11444 33.3248 1.49956 34.27 1.19213Z" fill="#ECEAEC"/>
<path d="M0.2664 45.873C0.408183 45.6317 0.721824 45.3499 0.964573 45.2474C1.20517 45.1428 5.536 45.0531 19.7701 45.0318L20.4146 45.6723C20.8443 46.0993 21.0591 46.5263 21.0591 46.9533C21.0591 47.3461 20.855 47.8009 20.0043 48.6613L0.973166 48.6527L0.483371 48.1766C0.16973 47.8713 -0.00212833 47.4529 1.98986e-05 47.0067C0.00431635 46.6245 0.122469 46.1142 0.2664 45.873Z" fill="#8ED001"/>
<path d="M90.5471 33.1997C90.9058 32.7386 91.6298 32.1386 92.1582 31.8654C92.6845 31.5921 93.3376 31.3679 93.6083 31.3679C93.9692 31.3679 94.0723 31.4661 94.0014 31.7415C93.9477 31.9465 93.6104 33.2189 93.2495 34.5704C92.8886 35.9197 92.5943 37.2412 92.5943 37.506C92.5943 37.7707 92.7382 38.2746 92.9165 38.6268C93.0927 38.9791 93.5288 39.4104 93.8833 39.5876C94.3859 39.8374 95.3999 39.9078 98.5019 39.9078C100.687 39.9078 102.62 39.9569 102.798 40.0146C103.05 40.0978 103.121 40.5014 103.121 43.5373L96.6222 43.4839C91.082 43.4391 90.0293 43.3793 89.4794 43.0804C89.1249 42.8883 88.6888 42.4655 88.5127 42.141C88.3344 41.8165 88.1969 41.2529 88.2033 40.8899C88.2119 40.5248 88.5965 38.8361 89.0583 37.1324C89.6792 34.8394 90.0659 33.8189 90.5471 33.1997Z" fill="#F3F3F5"/>
<path d="M69.8181 24.3225C69.816 23.208 69.7322 21.9334 69.6334 21.4936L69.4529 20.693L77.1027 20.6951C82.7483 20.6994 84.8901 20.7677 85.2703 20.962C85.5539 21.1072 85.8933 21.3933 86.0222 21.5982C86.1983 21.8779 86.1704 22.2793 85.9062 23.1995C85.7128 23.8762 83.5087 31.97 81.0104 41.1888C78.5098 50.4076 76.1919 58.9582 75.2574 62.4318L46.5163 62.5578L46.1941 61.8703C46.0158 61.4946 45.4787 60.8413 44.9975 60.4207C44.5163 59.998 43.6506 59.5219 43.0641 59.3553C42.3581 59.1561 41.5038 59.0977 40.5013 59.1803C39.4529 59.2678 38.6065 59.4984 37.7086 59.9424C36.9997 60.2926 35.9127 61.0206 34.164 62.5386L30.888 62.5322C28.0824 62.5279 27.5561 62.4745 27.2295 62.1586C27.019 61.9579 26.8493 61.5266 26.8536 61.2042C26.8579 60.8818 27.3949 58.623 28.0459 56.187C28.6989 53.751 29.3584 51.4687 29.5131 51.1164C29.6742 50.7492 30.063 50.3735 30.4218 50.239C30.9481 50.0383 31.3455 50.0981 32.8751 50.5955C33.8783 50.9222 35.5217 51.3662 36.5271 51.5797C37.8998 51.8744 39.2596 51.9683 42.005 51.9662C44.7311 51.9619 46.1189 51.8594 47.483 51.5669C48.4862 51.3513 50.1296 50.8859 51.135 50.5336C52.1382 50.1813 53.541 49.6049 54.2499 49.2505C54.9588 48.8982 56.3122 48.1061 57.2574 47.4912C58.2026 46.8764 59.556 45.8644 60.2649 45.2431C60.9739 44.6197 62.1232 43.4775 62.8192 42.7046C63.5152 41.9296 64.6237 40.48 65.2789 39.4808C65.9363 38.4816 66.8407 36.874 67.2896 35.9047C67.7386 34.9354 68.353 33.3022 68.6538 32.2753C68.9545 31.2483 69.3412 29.4934 69.5131 28.3789C69.6828 27.2645 69.8203 25.4369 69.8181 24.3225Z" fill="url(#paint2_linear_121_20)"/>
<path d="M81.6762 38.6269C83.6547 31.2889 85.326 25.0676 85.3926 24.8029C85.5043 24.3545 85.6289 24.3225 88.9437 24.3225L88.8234 24.9096C88.7568 25.232 87.1112 31.4064 85.1671 38.6269C83.2229 45.8474 81.6332 51.8296 81.6354 51.9171C81.6375 52.0046 87.8738 52.0772 95.4957 52.0772C103.115 52.0772 109.388 52.1498 109.431 52.2374C109.474 52.3249 108.886 54.7033 106.733 62.6454L100.544 62.5386L100.276 61.8661C100.127 61.4968 99.5967 60.8242 99.094 60.3716C98.5913 59.919 97.818 59.4429 97.3754 59.3148C96.9329 59.1846 95.8438 59.1141 94.9587 59.159C93.7192 59.2209 93.0253 59.3895 91.9512 59.8955C91.1821 60.2563 90.0478 60.9993 88.2992 62.5386L84.9157 62.545C81.7364 62.5493 81.4872 62.5215 80.7804 62.0583C80.3013 61.7423 79.9211 61.2576 79.7321 60.7175C79.4528 59.9147 79.4893 59.6671 80.4345 56.1337C80.9845 54.0798 81.4313 52.3249 81.4292 52.2374C81.427 52.1498 80.673 52.0537 78.0801 51.9705L81.6762 38.6269Z" fill="#A5D933"/>
<path d="M94.0995 31.3679L98.557 31.3103C101.008 31.2783 103.038 31.2292 103.068 31.2035C103.098 31.1758 103.122 33.1485 103.122 40.0146L98.7719 39.9441C95.5474 39.8929 94.2692 39.7947 93.8309 39.5705C93.5066 39.404 93.0941 38.9791 92.9179 38.6269C92.7418 38.2746 92.5957 37.7707 92.5957 37.506C92.5957 37.2413 92.8427 36.114 93.1414 34.9974C93.4421 33.8829 93.7794 32.6084 94.0995 31.3679Z" fill="white"/>
<path d="M36.6326 64.6672C37.0322 64.1057 37.7218 63.5271 38.4457 63.1492C39.0881 62.814 39.9345 62.5386 40.3254 62.5386C40.7164 62.5386 41.3265 62.6817 41.681 62.8589C42.0354 63.034 42.4715 63.3948 42.6498 63.6595C42.8281 63.9242 42.9721 64.5477 42.9721 65.0472C42.9699 65.5468 42.8668 66.2193 42.7422 66.5417C42.6154 66.8641 42.2051 67.4491 41.8292 67.8419C41.4511 68.2326 40.7809 68.7386 40.3383 68.9628C39.8636 69.204 39.0924 69.3706 38.4586 69.3706C37.5156 69.3706 37.2857 69.2766 36.5789 68.5956C35.8077 67.8547 35.7776 67.7736 35.8808 66.6976C35.9559 65.9098 36.1815 65.2992 36.6326 64.6672Z" fill="#DAD8DB"/>
<path d="M91.1288 64.1399C91.4231 63.7876 92.0912 63.2773 92.6132 63.0062C93.3673 62.6155 93.8034 62.5344 94.7421 62.607C95.7346 62.6859 96.0182 62.8076 96.5144 63.367C96.972 63.8837 97.1052 64.2488 97.1052 64.9939C97.1052 65.5233 96.9634 66.2663 96.7915 66.6485C96.6175 67.0306 96.1342 67.654 95.7174 68.0362C95.2985 68.4184 94.6197 68.8731 94.2051 69.0503C93.7905 69.2254 93.0193 69.3706 92.4865 69.3706C91.7368 69.3706 91.3694 69.2382 90.8517 68.7834C90.3447 68.3372 90.16 67.9658 90.0805 67.2356C90.016 66.6527 90.0977 65.9802 90.2846 65.5276C90.4564 65.1156 90.8367 64.4921 91.1288 64.1399Z" fill="#DAD8DB"/>
<path d="M5.17214 53.7745C5.17644 53.386 5.38911 52.9163 5.69846 52.6003L6.21618 52.0772H12.1324C15.387 52.0772 18.2097 52.1498 18.4031 52.2373C18.5964 52.3249 18.8864 52.6622 19.0475 52.9846C19.2086 53.307 19.3397 53.7638 19.3397 53.9987C19.3397 54.2335 19.0561 54.7139 18.083 55.7067H6.45033L5.80587 55.0662C5.36333 54.6264 5.16355 54.2207 5.17214 53.7745Z" fill="#8ED001"/>
<path d="M10.6286 60.0898C10.8241 59.7396 11.1958 59.334 11.4557 59.1846C11.7457 59.018 12.7146 58.9134 13.9691 58.9134C15.1872 58.9134 16.2269 59.0223 16.547 59.1846C16.8413 59.3319 17.2151 59.7396 17.3741 60.0877C17.5352 60.4378 17.6082 60.9395 17.5352 61.2042C17.4643 61.4668 17.2129 61.8768 16.9766 62.1116C16.5964 62.4895 16.257 62.5386 14.0228 62.5429C11.7887 62.545 11.4428 62.4959 11.0153 62.1159C10.7489 61.8768 10.474 61.4668 10.4009 61.2042C10.3257 60.9267 10.4224 60.4549 10.6286 60.0898Z" fill="#8ED001"/>
<path d="M36.8482 4.18108C37.6753 3.99107 38.5453 3.79252 38.7816 3.73701C39.0179 3.68363 40.6613 3.66869 42.4336 3.70712C44.9255 3.76049 46.0448 3.88218 47.3745 4.24513C48.3197 4.50346 49.7698 5.0244 50.5968 5.40229C51.4239 5.78018 52.8632 6.61282 53.7934 7.25332C54.7257 7.89381 56.1758 9.1385 57.0179 10.0181C57.8578 10.8977 58.9277 12.1958 59.3938 12.9003C59.86 13.6049 60.5539 14.8538 60.9341 15.6758C61.3165 16.4978 61.8278 17.8919 62.0705 18.7715C62.3154 19.6511 62.6054 21.2374 62.7171 22.2942C62.8503 23.5496 62.846 24.9566 62.7021 26.3507C62.5818 27.5249 62.251 29.2778 61.9653 30.247C61.6795 31.2163 61.0694 32.7535 60.6097 33.663C60.15 34.5725 59.3423 35.8941 58.816 36.5986C58.2896 37.3031 57.338 38.4027 56.6978 39.041C56.0598 39.6794 54.9577 40.6273 54.2488 41.1461C53.5399 41.6649 52.2359 42.4506 51.3487 42.8904C50.4637 43.3302 49.1081 43.8895 48.3412 44.1329C47.5743 44.3785 46.4142 44.6731 45.7633 44.7905C45.1124 44.9079 43.9524 45.0638 43.1855 45.1342C42.4185 45.2068 40.9191 45.1663 39.8557 45.0446C38.7923 44.9229 37.3423 44.6752 36.6334 44.4916C35.9245 44.308 34.5711 43.8255 33.6259 43.4177C32.6806 43.0099 31.3767 42.3673 30.7279 41.9873C30.0791 41.6073 28.5217 40.2857 27.265 39.0538C25.6388 37.459 24.6935 36.3189 23.9825 35.1041C23.4325 34.1647 22.7043 32.6766 22.3606 31.7949C22.019 30.9153 21.5722 29.3781 21.3702 28.3789C21.0824 26.9592 21.0287 25.8917 21.1167 23.4685C21.2005 21.1563 21.3488 19.9671 21.7054 18.7715C21.9653 17.8919 22.4895 16.4978 22.8675 15.6758C23.2456 14.8538 23.976 13.5558 24.4938 12.7936C25.0093 12.0314 26.1157 10.6992 26.9513 9.83877C27.787 8.97624 29.2907 7.72942 30.2961 7.06757C31.3015 6.40573 32.8461 5.56455 33.7333 5.1952C34.6183 4.82584 36.0211 4.36896 36.8482 4.18108Z" fill="white"/>
<path d="M39.5668 21.8267C39.8439 21.5705 40.3122 21.2631 40.6087 21.1456C40.903 21.0304 41.5324 20.9257 42.005 20.9151C42.5657 20.9023 43.1221 21.0645 43.6055 21.3805C44.0136 21.6474 44.5722 22.2025 44.8471 22.6145C45.178 23.1098 45.3455 23.6692 45.3412 24.2691C45.3369 24.7687 45.1651 25.5266 44.9588 25.9558C44.7526 26.3828 44.2929 26.9336 43.9384 27.1748C43.5797 27.4204 42.8171 27.6573 42.2198 27.7086C41.367 27.7812 40.9567 27.6958 40.2349 27.2901C39.7322 27.0083 39.1307 26.4425 38.8987 26.0305C38.6645 25.6184 38.4712 24.8755 38.4669 24.3759C38.4626 23.8763 38.5958 23.2038 38.7612 22.8814C38.9288 22.559 39.2918 22.0829 39.5668 21.8267Z" fill="#5D5360"/>
<path d="M40.2624 7.4775C40.3526 6.43776 40.4901 6.01717 40.8424 5.71614C41.098 5.49837 41.5835 5.32117 41.9229 5.32117C42.2967 5.32117 42.7543 5.53253 43.0787 5.85491C43.5448 6.3182 43.6157 6.57867 43.6179 7.82977C43.6179 8.69016 43.5019 9.44168 43.3279 9.69787C43.1689 9.93272 42.7564 10.2017 42.4127 10.2957C42.011 10.4067 41.5792 10.3683 41.1925 10.1889C40.8639 10.0373 40.4944 9.67225 40.3698 9.37763C40.243 9.07873 40.1958 8.24395 40.2624 7.4775Z" fill="#C8C5C9"/>
<path d="M23.0379 23.4557C23.1797 23.2144 23.4933 22.9326 23.7361 22.8301C23.9767 22.7255 24.7779 22.6358 25.5169 22.6273C26.6727 22.6166 26.9348 22.6892 27.3966 23.1482C27.7017 23.4514 27.9358 23.9339 27.9401 24.2691C27.9444 24.6086 27.7189 25.1039 27.4031 25.4433C26.9047 25.9814 26.7285 26.0305 25.3021 26.0262C23.9852 26.0219 23.6695 25.9472 23.2549 25.5458C22.9777 25.2747 22.7694 24.8178 22.7715 24.4826C22.7758 24.1602 22.8939 23.6969 23.0379 23.4557Z" fill="#C8C5C9"/>
<path d="M56.0346 23.6948C56.1442 23.5112 56.4084 23.1845 56.6232 22.9668C56.9455 22.638 57.272 22.5846 58.5609 22.6465C59.7446 22.7042 60.2194 22.8216 60.5717 23.1482C60.8424 23.4002 61.0314 23.8378 61.0314 24.2157C61.0314 24.568 60.8338 25.121 60.5932 25.4433C60.1871 25.9899 60.0518 26.0305 58.5996 26.0262C57.4653 26.0219 56.9068 25.9216 56.5416 25.6526C56.2666 25.4497 55.996 25.0014 55.938 24.6555C55.8821 24.3097 55.9251 23.8784 56.0346 23.6948Z" fill="#C8C5C9"/>
<path d="M40.6125 38.8937C40.851 38.6887 41.2634 38.4582 41.5255 38.3813C41.7897 38.3045 42.1012 38.2297 42.2194 38.2126C42.3375 38.1956 42.677 38.3685 42.9713 38.5991C43.446 38.9684 43.5169 39.2097 43.59 40.6892C43.6694 42.3203 43.6565 42.3759 43.0529 42.8498C42.7135 43.1188 42.1678 43.3345 41.8434 43.3302C41.5083 43.3259 41.0207 43.0932 40.7156 42.79C40.2452 42.3225 40.1786 42.0706 40.1786 40.7618C40.1786 39.5278 40.2538 39.2033 40.6125 38.8937Z" fill="#C8C5C9"/>
<path d="M47.4751 16.2992C50.0121 13.7394 52.2849 11.5724 52.5234 11.4848C52.764 11.3973 53.0798 11.3204 53.228 11.3119C53.3762 11.3055 53.7393 11.4187 54.0379 11.566C54.3344 11.7133 54.6824 12.072 54.8113 12.3666C54.938 12.6591 54.9874 13.1394 54.9208 13.4341C54.8478 13.7543 52.895 15.8487 50.0422 18.6648C46.7318 21.9356 45.2495 23.2635 45.17 23.0415C45.1056 22.8664 44.7039 22.3754 44.2807 21.9526C43.8553 21.532 43.3612 21.1328 43.1851 21.0688C42.9595 20.9898 44.257 19.5465 47.4751 16.2992Z" fill="url(#paint3_linear_121_20)"/>
<path d="M34.9831 29.4229C34.9509 28.855 35.1937 28.5092 36.6308 27.0745C37.5589 26.1479 38.373 25.39 38.4418 25.3878C38.5105 25.3878 38.7339 25.6995 38.938 26.0817C39.1421 26.4638 39.6512 26.9698 40.068 27.2047C40.4847 27.4395 40.8263 27.6787 40.8263 27.7384C40.8263 27.7982 40.0744 28.5796 39.1593 29.4784C38.242 30.3751 37.2753 31.1693 37.0089 31.2398C36.7425 31.3102 36.2592 31.2377 35.9348 31.0775C35.6104 30.9174 35.271 30.6292 35.1829 30.437C35.0948 30.2449 35.0046 29.788 34.9831 29.4229Z" fill="url(#paint4_linear_121_20)"/>
<defs>
<linearGradient id="paint0_linear_121_20" x1="48.7429" y1="20.7258" x2="48.7429" y2="66.183" gradientUnits="userSpaceOnUse">
<stop stop-color="#75BB0C"/>
<stop offset="1" stop-color="#91D200"/>
</linearGradient>
<linearGradient id="paint1_linear_121_20" x1="48.7429" y1="20.7258" x2="48.7429" y2="66.183" gradientUnits="userSpaceOnUse">
<stop stop-color="#75BB0C"/>
<stop offset="1" stop-color="#91D200"/>
</linearGradient>
<linearGradient id="paint2_linear_121_20" x1="56.4936" y1="20.693" x2="56.4936" y2="62.5578" gradientUnits="userSpaceOnUse">
<stop stop-color="#75BB0C"/>
<stop offset="1" stop-color="#91D200"/>
</linearGradient>
<linearGradient id="paint3_linear_121_20" x1="44.9655" y1="11.3116" x2="44.9655" y2="31.2667" gradientUnits="userSpaceOnUse">
<stop stop-color="#75BB0C"/>
<stop offset="1" stop-color="#91D200"/>
</linearGradient>
<linearGradient id="paint4_linear_121_20" x1="44.9655" y1="11.3116" x2="44.9655" y2="31.2667" gradientUnits="userSpaceOnUse">
<stop stop-color="#75BB0C"/>
<stop offset="1" stop-color="#91D200"/>
</linearGradient>
</defs>
</svg>
