<svg width="82" height="97" viewBox="0 0 82 97" fill="none" xmlns="http://www.w3.org/2000/svg">
<path d="M35.7669 2.47047C36.8716 1.49668 37.9989 0.68582 38.5946 0.435742C39.1394 0.204609 39.9048 0.0132617 41 0V12.125C41 22.7344 41.247 24.3561 41 24.4395C40.8454 24.4925 39.9896 24.4395 39.4448 24.4395C38.9 24.4395 37.7764 24.5645 36.947 24.7179C36.1175 24.8695 35.0147 25.112 34.4963 25.256C33.9779 25.3981 33.0655 25.6993 32.4698 25.9248C31.8741 26.1502 30.8127 26.6257 30.1133 26.9838C29.4139 27.3419 28.3583 27.9595 27.7663 28.3573C27.1763 28.7552 26.1281 29.549 25.4363 30.123C24.7444 30.6971 23.6322 31.8054 22.963 32.5859C22.2938 33.3684 21.3814 34.5619 20.9365 35.2383C20.4916 35.9146 19.8337 37.0665 19.4736 37.7959C19.1135 38.5253 18.6404 39.6336 18.4217 40.2588C18.203 40.884 17.8995 41.8635 17.7487 42.4375C17.596 43.0115 17.3717 44.0763 17.251 44.8057C17.1285 45.5351 17.0286 47.1985 17.0286 48.5C17.0286 49.8034 17.1285 51.4649 17.251 52.1943C17.3717 52.9237 17.596 53.9904 17.7487 54.5625C17.8995 55.1346 18.203 56.116 18.4217 56.7412C18.6404 57.3664 19.1135 58.4747 19.4736 59.2041C19.8337 59.9335 20.4916 61.0854 20.9365 61.7617C21.3814 62.4381 22.2938 63.6335 22.963 64.4141C23.6322 65.1965 24.7444 66.3048 25.4363 66.877C26.1281 67.4491 27.1763 68.2448 27.7663 68.6427C28.3583 69.0405 29.4139 69.6581 30.1133 70.0162C30.8127 70.3743 31.8741 70.8498 32.4698 71.0752C33.0655 71.3007 33.9779 71.6019 34.4963 71.744C35.0147 71.888 36.1175 72.1305 36.947 72.2821C37.7764 72.4355 38.9 72.5605 39.4448 72.5605C39.9896 72.5605 41.3454 72.4488 41.5 72.5C41.747 72.5834 41 74.2656 41 97L40.2931 96.9962C39.9048 96.9943 38.9075 96.7499 38.078 96.4544C37.2486 96.1588 35.8498 95.6303 34.9676 95.2798C34.0853 94.9293 31.8797 93.9005 30.0662 92.9931C28.2508 92.0856 25.9189 90.8106 24.8821 90.1607C23.8452 89.5109 22.0638 88.2776 20.9233 87.4231C19.7828 86.5687 18.0107 85.1118 16.9833 84.1873C15.9578 83.2628 14.314 81.569 13.3318 80.4229C12.3496 79.2767 10.9754 77.5299 10.2779 76.5391C9.58037 75.5482 8.48888 73.8431 7.85358 72.75C7.22018 71.6569 6.23802 69.7377 5.67625 68.4873C5.11259 67.2369 4.29821 65.1908 3.8684 63.9404C3.43858 62.69 2.79575 60.5587 2.43946 59.2041C2.08317 57.8495 1.54402 55.2502 1.23862 53.4258C0.935116 51.6032 0.533581 48.7027 0.345067 46.9844C0.0547552 44.332 0.00197124 42.195 8.60965e-05 32.8701C-0.00179904 22.6832 0.0245929 21.7985 0.348837 20.7451C0.543007 20.1199 0.967163 19.0969 1.29141 18.4717C1.61754 17.8465 2.39233 16.8215 3.01443 16.1963C3.63652 15.5693 4.56967 14.8096 5.08808 14.5083C5.6065 14.2052 6.49628 13.7979 7.06748 13.6008C7.63679 13.4057 9.37678 13.1177 10.932 12.9624C12.4873 12.807 14.5232 12.5532 15.4564 12.3978C16.3895 12.2425 18.0013 11.8977 19.0381 11.6324C20.075 11.3672 21.8131 10.8272 22.9027 10.4313C23.9904 10.0353 25.6022 9.34951 26.4844 8.90809C27.3667 8.46477 28.7221 7.71264 29.5007 7.23332C30.2773 6.7559 31.5932 5.85221 32.4226 5.22512C33.2521 4.59992 34.7564 3.3609 35.7669 2.47047Z" fill="#91D200"/>
<path d="M41.1414 24.2481C41.0641 24.25 41 18.7938 41 12.125V0H41.7069C42.0953 0 42.9228 0.2425 43.5449 0.539941C44.201 0.852539 45.4282 1.75244 46.4669 2.68266C47.4528 3.56551 48.8931 4.75906 49.6716 5.33689C50.4483 5.91473 51.6586 6.74074 52.358 7.1727C53.0574 7.60465 54.3939 8.33973 55.3271 8.80957C56.2602 9.27752 57.8513 9.97281 58.8617 10.3536C59.8721 10.7344 61.4632 11.2516 62.3964 11.5017C63.3295 11.7537 64.9846 12.1193 66.0724 12.3145C67.1601 12.5115 69.3883 12.8032 71.0209 12.9662C73.0172 13.1651 74.3444 13.3981 75.0739 13.6766C75.6696 13.904 76.5387 14.3056 77.0062 14.5708C77.4737 14.8361 78.3635 15.5712 78.9856 16.2039C79.6077 16.8386 80.3825 17.8635 80.7086 18.483C81.0329 19.1026 81.457 20.1199 81.6512 20.7451C81.9754 21.7985 82.0018 22.6794 81.9999 32.7754C81.998 41.9771 81.9434 44.1539 81.6568 46.7949C81.4702 48.5133 81.1101 51.2205 80.8575 52.8101C80.6068 54.3996 80.1845 56.6162 79.9225 57.7358C79.6605 58.8555 79.1421 60.7538 78.7707 61.9512C78.3993 63.1485 77.7603 64.9824 77.3493 66.0244C76.9383 67.0664 76.1126 68.9003 75.5169 70.0977C74.9193 71.295 73.9296 73.0853 73.3207 74.0762C72.71 75.067 71.6053 76.6849 70.8625 77.6758C70.1217 78.6666 68.8002 80.2429 67.9255 81.1807C67.0508 82.1185 65.7877 83.403 65.1204 84.0357C64.4512 84.6685 63.2692 85.701 62.4906 86.3319C61.7139 86.9628 59.8891 88.2776 58.4376 89.2533C56.986 90.2289 54.1866 91.8431 52.2166 92.8396C50.2466 93.8361 47.9147 94.9369 47.0325 95.2836C46.1502 95.6321 44.7514 96.1588 43.922 96.4544C43.0925 96.7499 42.0953 96.9943 41 97V84.875C41 78.2063 41.0641 72.75 41.1414 72.7519C41.2187 72.7519 42.1744 72.6647 43.2622 72.5568C44.3499 72.4469 45.9202 72.1873 46.7497 71.977C47.5791 71.7667 48.6819 71.439 49.2004 71.2476C49.7188 71.0563 50.8631 70.541 51.7453 70.1033C52.6275 69.6638 53.9773 68.8662 54.7446 68.3282C55.5137 67.7901 56.7013 66.8296 57.3838 66.1949C58.0681 65.5584 59.1558 64.3648 59.8043 63.5426C60.4509 62.7185 61.2634 61.5761 61.6084 61.0039C61.9533 60.4318 62.5434 59.2799 62.9166 58.4463C63.2918 57.6127 63.8177 56.1634 64.0873 55.2256C64.355 54.2878 64.6698 52.9654 64.7848 52.2891C64.8979 51.6127 64.9922 49.9076 64.9922 48.5C64.9922 47.0924 64.8979 45.3873 64.7848 44.7109C64.6698 44.0346 64.355 42.7122 64.0873 41.7744C63.8177 40.8366 63.2918 39.3873 62.9166 38.5537C62.5434 37.7201 61.9533 36.5701 61.6084 35.9961C61.2634 35.4221 60.4509 34.2815 59.8043 33.4574C59.1558 32.6352 58.0681 31.4416 57.3838 30.8051C56.7013 30.1704 55.5137 29.2099 54.7446 28.6718C53.9773 28.1338 52.6275 27.3362 51.7453 26.8967C50.8631 26.459 49.7188 25.9437 49.2004 25.7524C48.6819 25.561 47.5791 25.2333 46.7497 25.023C45.9202 24.8127 44.3499 24.5531 43.2622 24.4432C42.1744 24.3353 41.2187 24.2481 41.1414 24.2481Z" fill="#75BB0C"/>
<path d="M37.419 24.6403C38.1957 24.5266 39.257 24.4073 39.7754 24.3769C40.2938 24.3447 40.7821 24.3031 40.8594 24.2841C40.9367 24.2652 41.0008 29.6002 40.9989 48.0264L38.9723 50.0649C37.8601 51.1846 36.8629 52.1015 36.7592 52.1015C36.6555 52.1015 35.8072 51.3342 34.874 50.3945C33.792 49.3052 32.938 48.6099 32.5176 48.4773C32.1462 48.3598 31.5694 48.3295 31.198 48.4053C30.8342 48.4811 30.3384 48.6819 30.0933 48.8524C29.8483 49.0229 29.4901 49.4189 29.2978 49.7315C29.1036 50.0459 28.9453 50.6598 28.9415 51.105C28.9377 51.5483 29.0565 52.1451 29.2035 52.4312C29.3506 52.7172 30.8134 54.2859 32.4554 55.9152C34.8024 58.2436 35.581 58.9067 36.0994 59.0128C36.4632 59.0866 37.0552 59.0866 37.419 59.0128C37.894 58.918 38.4897 58.4728 41.0045 55.9834L41.095 72.7064L39.9639 72.6269C39.3418 72.5833 38.1975 72.4582 37.419 72.3503C36.6423 72.2404 35.5395 72.0244 34.9683 71.8709C34.3971 71.7175 33.4225 71.4106 32.8004 71.1908C32.1783 70.971 31.034 70.4709 30.2554 70.0787C29.4788 69.6866 28.359 69.0405 27.7671 68.6427C27.177 68.2448 26.1289 67.4491 25.437 66.877C24.7452 66.3048 23.6329 65.1965 22.9637 64.4141C22.2945 63.6335 21.3821 62.44 20.9372 61.7617C20.4923 61.0854 19.8344 59.9335 19.4743 59.2041C19.1143 58.4747 18.6411 57.3664 18.4224 56.7412C18.2037 56.116 17.9002 55.1347 17.7494 54.5625C17.5967 53.9904 17.3724 52.9237 17.2517 52.1943C17.1292 51.4649 17.0293 49.8034 17.0293 48.5C17.0293 47.1985 17.1292 45.5351 17.2517 44.8057C17.3724 44.0763 17.5967 43.0115 17.7494 42.4375C17.9002 41.8654 18.2037 40.884 18.4224 40.2588C18.6411 39.6336 19.1388 38.4836 19.529 37.7012C19.9192 36.9206 20.5621 35.7953 20.9579 35.2004C21.3538 34.6074 22.1437 33.554 22.7149 32.8588C23.2861 32.1635 24.387 31.0457 25.1656 30.3731C25.9422 29.7006 27.1318 28.7836 27.8048 28.3365C28.4778 27.8894 29.6239 27.2282 30.3497 26.8664C31.0755 26.5045 32.1783 26.029 32.8004 25.8092C33.4225 25.5894 34.3971 25.2825 34.9683 25.1291C35.5395 24.9756 36.6404 24.7558 37.419 24.6403Z" fill="white"/>
<path d="M41.0132 47.8369L41.0075 36.0435C41.0038 29.5566 41.0641 24.25 41.1414 24.2481C41.2187 24.2481 42.1744 24.3353 43.2622 24.4432C44.3499 24.5531 45.9202 24.8127 46.7497 25.023C47.5791 25.2333 48.6819 25.561 49.2004 25.7524C49.7188 25.9437 50.8631 26.459 51.7453 26.8967C52.6257 27.3362 53.9773 28.1338 54.7446 28.6718C55.5137 29.2099 56.7013 30.1704 57.3838 30.8051C58.0681 31.4416 59.1558 32.6352 59.8043 33.4574C60.4509 34.2815 61.2634 35.4221 61.6084 35.9961C61.9533 36.5701 62.5434 37.7201 62.9166 38.5537C63.2918 39.3873 63.8177 40.8366 64.0873 41.7744C64.355 42.7122 64.6698 44.0346 64.7848 44.7109C64.8979 45.3873 64.9922 47.0924 64.9922 48.5C64.9922 49.9076 64.8979 51.6127 64.7848 52.2891C64.6698 52.9654 64.355 54.2878 64.0873 55.2256C63.8177 56.1634 63.2918 57.6127 62.9166 58.4463C62.5434 59.2799 61.9533 60.4318 61.6084 61.0039C61.2634 61.5761 60.4509 62.7185 59.8043 63.5426C59.1558 64.3648 58.0681 65.5584 57.3838 66.1949C56.7013 66.8296 55.5137 67.7901 54.7446 68.3282C53.9773 68.8662 52.6257 69.6638 51.7453 70.1033C50.8631 70.541 49.7188 71.0563 49.2004 71.2476C48.6819 71.439 47.5791 71.7667 46.7497 71.977C45.9202 72.1873 44.3725 72.4469 43.3093 72.5549C42.2461 72.6629 41.2922 72.7064 41.1885 72.6553C41.0679 72.5947 41 69.607 41 55.9834L46.5725 50.3945C49.6396 47.3216 52.2694 44.5707 52.4183 44.2847C52.5653 43.9986 52.6898 43.4018 52.6935 42.9585C52.6973 42.4299 52.5503 41.926 52.2656 41.4902C52.0262 41.1246 51.5361 40.6775 51.176 40.4956C50.8159 40.3137 50.2447 40.1641 49.9073 40.1641C49.5699 40.1641 49.0194 40.2891 48.6819 40.4445C48.3445 40.5979 46.482 42.3238 41.0132 47.8369Z" fill="white"/>
<path d="M44.2594 44.5442C46.0427 42.733 47.8845 41.0071 48.352 40.7078C48.8704 40.3744 49.4548 40.1641 49.8601 40.1641C50.2221 40.1641 50.8159 40.3137 51.176 40.4956C51.536 40.6775 52.0261 41.1246 52.2656 41.4902C52.5502 41.926 52.6973 42.4299 52.6935 42.9585C52.6897 43.4018 52.5936 43.955 52.4786 44.1899C52.3655 44.4249 49.7979 47.1094 46.776 50.1577C43.756 53.206 41.2186 55.6992 41.1413 55.6992C41.0641 55.6992 41.0037 53.9297 41.015 47.8369L44.2594 44.5442Z" fill="#2F4055"/>
<path d="M36.7589 52.0977C36.8626 52.0996 37.8353 51.1883 38.9193 50.0724L41 48L41.0947 55.7939L39.6809 57.2679C38.7798 58.2076 38.0276 58.8176 37.6072 58.9483C37.234 59.0658 36.6194 59.098 36.1934 59.0222C35.5411 58.9066 35.0359 58.4861 32.4551 55.9209C30.8132 54.2878 29.3503 52.7172 29.2033 52.4311C29.0562 52.1451 28.9356 51.5483 28.9356 51.105C28.9337 50.5593 29.0864 50.0705 29.4068 49.5893C29.7349 49.093 30.1383 48.7861 30.7378 48.572C31.3165 48.3655 31.8236 48.3105 32.293 48.4015C32.8322 48.5057 33.392 48.9357 34.7795 50.3149C35.7635 51.2925 36.6552 52.0939 36.7589 52.0977Z" fill="#2F4055"/>
</svg>
