<svg width="99" height="92" viewBox="0 0 99 92" fill="none" xmlns="http://www.w3.org/2000/svg">
<path d="M70.6917 5.81471C70.6497 1.042 70.6519 1.01767 71.1714 0.506784C71.6555 0.0312817 71.8721 -0.00410444 74.2527 0.000318833C76.598 0.00474211 76.8544 0.0467632 77.3164 0.497937C77.8093 0.982286 77.8182 1.08402 77.8071 10.6118L82.6148 10.6162C87.2854 10.6206 87.4357 10.6361 87.9265 11.1138C88.3929 11.5716 88.4282 11.7883 88.4172 14.1504C88.4083 16.4748 88.3663 16.738 87.9154 17.198C87.4313 17.6912 87.3296 17.7001 77.8071 17.689L77.8027 22.4993C77.7983 27.1725 77.7828 27.3229 77.3053 27.8139C76.8478 28.2805 76.6312 28.3159 74.2704 28.3049C71.9472 28.296 71.6842 28.254 71.2244 27.8028C70.7315 27.3185 70.7227 27.2167 70.7337 17.689L65.926 17.6846C61.2554 17.6801 61.1051 17.6647 60.6144 17.187C60.148 16.7291 60.1126 16.5124 60.1236 14.1504C60.1325 11.8259 60.1745 11.5628 60.6254 11.1027C61.1095 10.6095 61.2112 10.6007 70.7337 10.6118L70.6917 5.81471Z" fill="#91D200"/>
<path d="M21.1781 5.81471C21.1361 1.042 21.1383 1.01767 21.6577 0.506784C22.1418 0.0312817 22.3584 -0.00410444 24.7391 0.000318833C27.0843 0.00474211 27.3407 0.0467632 27.8027 0.497937C28.2956 0.982286 28.3045 1.08402 28.2934 10.6118L33.1011 10.6162C37.7718 10.6206 37.9221 10.6361 38.4128 11.1138C38.8792 11.5716 38.9146 11.7883 38.9035 14.1504C38.8947 16.4748 38.8527 16.738 38.4017 17.198C37.9177 17.6912 37.816 17.7001 28.2934 17.689L28.289 22.4993C28.2846 27.1725 28.2691 27.3229 27.7917 27.8139C27.3341 28.2805 27.1175 28.3159 24.7567 28.3049C22.4336 28.296 22.1705 28.254 21.7108 27.8028C21.2178 27.3185 21.209 27.2167 21.22 17.689L16.4124 17.6846C11.7417 17.6801 11.5914 17.6647 11.1007 17.187C10.6343 16.7291 10.5989 16.5124 10.61 14.1504C10.6188 11.8259 10.6608 11.5628 11.1117 11.1027C11.5958 10.6095 11.6975 10.6007 21.22 10.6118L21.1781 5.81471Z" fill="#BEFF5D"/>
<path d="M14.4098 60.0419C14.2705 59.5553 14.1578 58.9294 14.1622 58.6507C14.1711 58.246 14.2462 58.1863 14.5469 58.35C14.7524 58.4628 15.2476 58.9383 15.6454 59.4093C16.0433 59.8782 16.3705 60.4134 16.3705 60.5948C16.3705 60.7783 18.8285 63.3903 21.8346 66.4025C27.2988 71.8763 27.2988 71.8785 26.8567 72.3209C26.4147 72.761 26.4147 72.761 20.5415 66.8449C15.7537 62.0213 14.6198 60.7629 14.4098 60.0419Z" fill="#D2AA82"/>
<path d="M82.6967 60.5351C82.7188 60.3205 83.1874 59.6747 83.74 59.0975C84.6109 58.1907 84.7546 58.1111 84.832 58.4937C84.8806 58.737 84.7966 59.3828 84.6441 59.9313C84.4031 60.8049 83.6494 61.6475 78.4902 66.8294C72.6613 72.6814 72.6105 72.7256 72.2413 72.2479C71.8744 71.7702 71.9496 71.6817 77.2634 66.345C80.2298 63.3637 82.6746 60.7518 82.6967 60.5351Z" fill="#D2AA82"/>
<path d="M1.25331 31.8435C1.61804 31.4188 2.35632 30.8394 2.89346 30.5607C3.71132 30.1339 4.14235 30.0631 5.56145 30.1184C7.03581 30.1759 7.38063 30.2732 8.21397 30.8593C8.74226 31.2309 9.4717 31.9607 10.4996 33.4292L10.6211 54.2916L12.6614 56.3661C13.782 57.5095 14.5756 58.3787 14.4231 58.3013C14.2418 58.2106 14.149 58.3345 14.1512 58.6596C14.1534 58.9338 14.2705 59.5553 14.4098 60.0419C14.6198 60.7628 15.7537 62.0213 20.5415 66.8448C26.4147 72.761 26.4147 72.761 26.8567 72.3209C27.2988 71.8785 27.2988 71.8763 21.859 66.4025C18.298 62.8175 16.3705 60.7164 16.2776 60.3183C16.2003 59.9844 16.061 59.7101 15.9704 59.7101C15.8797 59.7101 15.8532 58.9736 15.9151 58.0735C16.0079 56.7111 16.1384 56.2776 16.6998 55.477C17.0712 54.9462 17.8028 54.2142 18.3245 53.8493C19.0937 53.3096 19.5469 53.1703 20.7427 53.1017C21.5738 53.0553 22.5995 53.1415 23.099 53.3008C23.7621 53.5131 24.8099 54.4022 30.6145 60.1436L32.2723 60.1458C33.183 60.148 34.5269 60.3006 35.2564 60.4842C35.9858 60.6677 37.4204 61.2406 38.446 61.7559C39.7657 62.4216 40.7294 63.1205 41.7617 64.1533C42.5597 64.9539 43.561 66.1991 43.9854 66.9178C44.4098 67.6366 45.0066 68.8729 45.8665 71.1L45.977 92H24.7568L24.7546 83.7064L12.7188 71.653C4.29708 63.22 0.579133 59.3496 0.340407 58.7702C0.0486295 58.058 0 56.2511 0 45.998C0 36.5631 0.0618921 33.9047 0.293987 33.3363C0.455349 32.9405 0.888594 32.2703 1.25331 31.8435Z" fill="#F0C8A0"/>
<path d="M89.6706 31.8435C90.0353 31.4166 90.7736 30.8394 91.3107 30.5607C92.1286 30.1339 92.5596 30.0631 93.9787 30.1184C95.4531 30.1759 95.7979 30.2732 96.6312 30.8593C97.1595 31.2309 97.889 31.9607 98.9168 33.4292L98.9831 45.5202C99.0318 54.097 98.9765 57.8656 98.7997 58.4937C98.5853 59.2412 96.6578 61.2715 74.2727 83.7064L74.2705 92H53.0504L53.0482 82.1029C53.0482 73.9 53.1056 71.9781 53.3886 70.8789C53.5765 70.149 54.034 68.9061 54.4054 68.1143C54.7767 67.3248 55.5305 66.1128 56.0831 65.4228C56.6335 64.7349 57.6436 63.722 58.3267 63.178C59.0119 62.6317 60.2166 61.8797 61.0079 61.5082C61.797 61.1366 63.0415 60.6788 63.771 60.4908C64.5004 60.3028 65.8421 60.148 68.4129 60.1436L71.7285 56.8637C74.2175 54.4022 75.2652 53.5131 75.9283 53.3008C76.4279 53.1415 77.4535 53.0553 78.2847 53.1017C79.4805 53.1703 79.9336 53.3096 80.7029 53.8493C81.2245 54.2142 81.9562 54.9462 82.3275 55.477C82.889 56.2776 83.0194 56.7111 83.1122 58.0735C83.1719 58.9736 83.1476 59.7101 83.057 59.7101C82.9664 59.7101 82.8271 59.9844 82.7497 60.3183C82.6569 60.7142 80.7427 62.8086 77.2391 66.345C71.9496 71.6817 71.8744 71.7702 72.2413 72.2479C72.6105 72.7256 72.6613 72.6814 78.4858 66.8294C83.2802 62.0124 84.4076 60.7628 84.6175 60.0419C84.7568 59.5553 84.874 58.9338 84.8762 58.6596C84.8784 58.3345 84.7855 58.2106 84.6043 58.3013C84.4518 58.3787 85.2475 57.5095 88.4151 54.2916V44.1734C88.4173 36.2601 88.4814 33.8981 88.7113 33.3363C88.8726 32.9405 89.3059 32.2703 89.6706 31.8435Z" fill="#F0C8A0"/>
<path d="M45.9349 34.1237C45.8929 29.351 45.8951 29.3266 46.4146 28.8157C46.8986 28.3402 47.1153 28.3049 49.4959 28.3093C51.8412 28.3137 52.0976 28.3557 52.5596 28.8069C53.0525 29.2912 53.0613 29.393 53.0503 38.9207L57.858 38.9251C62.5286 38.9296 62.6789 38.945 63.1696 39.4228C63.636 39.8806 63.6714 40.0973 63.6603 42.4593C63.6515 44.7838 63.6095 45.0469 63.1586 45.507C62.6745 46.0002 62.5728 46.009 53.0503 45.998L53.0458 50.8083C53.0414 55.4815 53.026 55.6318 52.5485 56.1228C52.0909 56.5895 51.8743 56.6249 49.5136 56.6138C47.1904 56.605 46.9274 56.5629 46.4676 56.1118C45.9747 55.6274 45.9658 55.5257 45.9769 45.998L41.1692 45.9935C36.4986 45.9891 36.3482 45.9736 35.8575 45.4959C35.3911 45.0381 35.3558 44.8214 35.3668 42.4593C35.3757 40.1349 35.4177 39.8717 35.8686 39.4117C36.3527 38.9185 36.4543 38.9097 45.9769 38.9207L45.9349 34.1237Z" fill="#78AD00"/>
</svg>
