<svg width="129" height="54" viewBox="0 0 129 54" fill="none" xmlns="http://www.w3.org/2000/svg">
<g clip-path="url(#clip0_129_4391)">
<g clip-path="url(#clip1_129_4391)">
<path d="M2.10248 37.0377H4.43617L7.8724 46.8537L11.3086 37.0377H13.6424L8.80956 50.4073H6.93526L2.10248 37.0377ZM0.84375 37.0377H3.16826L3.59092 46.6057V50.4073H0.84375V37.0377ZM12.5766 37.0377H14.9103V50.4073H12.154V46.6057L12.5766 37.0377ZM24.4994 39.324L20.8609 50.4073H17.93L22.9007 37.0377H24.7658L24.4994 39.324ZM27.522 50.4073L23.8745 39.324L23.5806 37.0377H25.464L30.4622 50.4073H27.522ZM27.3566 45.4304V47.5882H20.2912V45.4304H27.3566ZM44.1582 37.0377V50.4073H41.4018L36.0269 41.4452V50.4073H33.2705V37.0377H36.0269L41.411 46.009V37.0377H44.1582ZM49.7046 37.0377L52.4976 43.1348L55.2906 37.0377H58.2952L53.8941 45.5408V50.4073H51.1011V45.5408L46.6909 37.0377H49.7046Z" fill="url(#paint0_linear_129_4391)"/>
<path d="M66.2482 45.8709H62.9222V43.3825H66.2482C66.7015 43.3825 67.0689 43.3059 67.3508 43.153C67.6325 42.9998 67.8377 42.7887 67.9664 42.5192C68.1012 42.2437 68.1686 41.9347 68.1686 41.5919C68.1686 41.2245 68.1012 40.8849 67.9664 40.5725C67.8377 40.2604 67.6325 40.0093 67.3508 39.8197C67.0689 39.6237 66.7015 39.5258 66.2482 39.5258H64.1349V50.4071H60.9102V37.0373H66.2482C67.3202 37.0373 68.2419 37.2333 69.0137 37.6251C69.7918 38.0167 70.3889 38.5555 70.8054 39.2412C71.2218 39.9207 71.4301 40.6982 71.4301 41.5735C71.4301 42.4366 71.2218 43.1896 70.8054 43.8325C70.3889 44.4752 69.7918 44.9771 69.0137 45.3383C68.2419 45.6935 67.3202 45.8709 66.2482 45.8709ZM83.748 42.3447V44.8242H76.8847V42.3447H83.748ZM77.9595 37.0373V50.4071H74.7347V37.0373H77.9595ZM85.9166 37.0373V50.4071H82.7005V37.0373H85.9166ZM100.852 43.456V43.9977C100.852 45.02 100.709 45.9384 100.421 46.7524C100.139 47.5605 99.7375 48.2522 99.2169 48.8276C98.6963 49.397 98.0808 49.8348 97.3704 50.1409C96.66 50.4409 95.8762 50.5907 95.0185 50.5907C94.1543 50.5907 93.3649 50.4409 92.6483 50.1409C91.9371 49.8348 91.3186 49.397 90.7917 48.8276C90.2711 48.2522 89.8673 47.5605 89.5787 46.7524C89.2972 45.9384 89.1563 45.02 89.1563 43.9977V43.456C89.1563 42.4335 89.2972 41.5153 89.5787 40.7011C89.8673 39.887 90.268 39.1953 90.783 38.6259C91.3037 38.0504 91.9191 37.6127 92.6295 37.3128C93.346 37.0066 94.1363 36.8537 95.0002 36.8537C95.8574 36.8537 96.6412 37.0066 97.3524 37.3128C98.069 37.6127 98.6876 38.0504 99.2082 38.6259C99.7288 39.1953 100.133 39.887 100.421 40.7011C100.709 41.5153 100.852 42.4335 100.852 43.456ZM97.5813 43.9977V43.4376C97.5813 42.7765 97.5234 42.1949 97.4072 41.6929C97.2967 41.1848 97.1313 40.7592 96.9111 40.4165C96.6907 40.0737 96.4179 39.8166 96.0933 39.645C95.775 39.4677 95.4105 39.3789 95.0002 39.3789C94.5714 39.3789 94.1976 39.4677 93.8792 39.645C93.5609 39.8166 93.2943 40.0737 93.0794 40.4165C92.8654 40.7592 92.7031 41.1848 92.5926 41.6929C92.4883 42.1949 92.4366 42.7765 92.4366 43.4376V43.9977C92.4366 44.6526 92.4883 45.2342 92.5926 45.7423C92.7031 46.2443 92.8654 46.6698 93.0794 47.0188C93.3005 47.3678 93.5696 47.6309 93.8885 47.8084C94.2131 47.986 94.5896 48.0746 95.0185 48.0746C95.4285 48.0746 95.793 47.986 96.1122 47.8084C96.4305 47.6309 96.6969 47.3678 96.9111 47.0188C97.1313 46.6698 97.2967 46.2443 97.4072 45.7423C97.5234 45.2342 97.5813 44.6526 97.5813 43.9977ZM115.265 37.0373V50.4071H112.05L107.317 42.0876V50.4071H104.093V37.0373H107.317L112.05 45.3567V37.0373H115.265ZM128.079 47.9279V50.4071H120.949V47.9279H128.079ZM122.098 37.0373V50.4071H118.873V37.0373H122.098ZM127.16 42.3447V44.7414H120.949V42.3447H127.16ZM128.107 37.0373V39.5258H120.949V37.0373H128.107Z" fill="#2F4055"/>
<path d="M47.9434 29.2504C39.7163 29.2504 33.0469 22.5849 33.0469 14.3625C33.0469 7.63864 37.5067 1.95586 43.6312 0.107774V5.81212L42.8471 6.13489C41.2792 7.04907 38.143 9.97442 38.143 14.3625C38.143 19.8475 42.8471 23.7654 47.5514 23.7654C51.3146 23.7654 53.8236 21.6759 54.6077 20.631L74.9922 0.107774C75.7762 -0.525534 77.2659 -0.525534 78.5204 -0.525534H84.0085V17.8886H78.5204V4.69569L57.0877 26.1161C53.8236 28.8586 51.3901 29.2504 47.9434 29.2504Z" fill="url(#paint1_linear_129_4391)"/>
<g filter="url(#filter0_f_129_4391)">
<path d="M73.847 14.8779L65.5775 6.54783L57.0645 14.9894L65.334 23.3195L73.847 14.8779Z" fill="white"/>
</g>
<path d="M82.0495 29.2504C90.2764 29.2504 96.946 22.5849 96.946 14.3625C96.946 7.63864 92.4866 1.95586 86.3618 0.107774V5.81212L87.1458 6.13489C88.7137 7.04907 91.8499 9.97442 91.8499 14.3625C91.8499 19.8475 87.1458 23.7654 82.4415 23.7654C78.6782 23.7654 76.1693 21.6759 75.3853 20.631L55.0008 0.107774C54.2167 -0.525534 52.727 -0.525534 51.4725 -0.525534H45.9844V17.8886H51.4725V4.69569L72.9052 26.1161C76.1693 28.8586 78.603 29.2504 82.0495 29.2504Z" fill="#2F4055"/>
</g>
</g>
<defs>
<filter id="filter0_f_129_4391" x="54.1667" y="3.65007" width="22.5781" height="22.5672" filterUnits="userSpaceOnUse" color-interpolation-filters="sRGB">
<feFlood flood-opacity="0" result="BackgroundImageFix"/>
<feBlend mode="normal" in="SourceGraphic" in2="BackgroundImageFix" result="shape"/>
<feGaussianBlur stdDeviation="1.44888" result="effect1_foregroundBlur_129_4391"/>
</filter>
<linearGradient id="paint0_linear_129_4391" x1="29.5695" y1="37.0377" x2="29.5695" y2="50.4073" gradientUnits="userSpaceOnUse">
<stop stop-color="#75BB0C"/>
<stop offset="1" stop-color="#91D200"/>
</linearGradient>
<linearGradient id="paint1_linear_129_4391" x1="58.5277" y1="-0.525534" x2="58.5277" y2="29.2504" gradientUnits="userSpaceOnUse">
<stop stop-color="#75BB0C"/>
<stop offset="1" stop-color="#91D200"/>
</linearGradient>
<clipPath id="clip0_129_4391">
<rect width="128.346" height="53.5385" fill="white"/>
</clipPath>
<clipPath id="clip1_129_4391">
<rect width="129.364" height="54.8505" fill="white" transform="translate(-0.666016 -0.525462)"/>
</clipPath>
</defs>
</svg>
