<svg width="162" height="68" viewBox="0 0 162 68" fill="none" xmlns="http://www.w3.org/2000/svg">
<g clip-path="url(#clip0_29_2981)">
<path d="M2.81156 46.5747H5.74109L10.0547 58.8969L14.3682 46.5747H17.2978L11.2311 63.3579H8.87826L2.81156 46.5747ZM1.23145 46.5747H4.14945L4.68002 58.5856V63.3579H1.23145V46.5747ZM15.9599 46.5747H18.8895V63.3579H15.4294V58.5856L15.9599 46.5747ZM30.9269 49.4448L26.3594 63.3579H22.6803L28.92 46.5747H31.2613L30.9269 49.4448ZM34.7212 63.3579L30.1425 49.4448L29.7735 46.5747H32.1377L38.4121 63.3579H34.7212ZM34.5136 57.1103V59.819H25.6443V57.1103H34.5136ZM55.6051 46.5747V63.3579H52.1449L45.3977 52.1075V63.3579H41.9375V46.5747H45.3977L52.1564 57.8365V46.5747H55.6051ZM62.5675 46.5747L66.0737 54.2285L69.5798 46.5747H73.3515L67.8267 57.2488V63.3579H64.3206V57.2488L58.7844 46.5747H62.5675Z" fill="url(#paint0_linear_29_2981)"/>
<path d="M83.3359 57.6628H79.1607V54.5391H83.3359C83.9049 54.5391 84.3661 54.443 84.72 54.2509C85.0737 54.0587 85.3311 53.7936 85.4928 53.4553C85.6619 53.1095 85.7466 52.7216 85.7466 52.2913C85.7466 51.8301 85.6619 51.4037 85.4928 51.0116C85.3311 50.6198 85.0737 50.3046 84.72 50.0666C84.3661 49.8206 83.9049 49.6977 83.3359 49.6977H80.683V63.3572H76.6349V46.5737H83.3359C84.6816 46.5737 85.8386 46.8198 86.8075 47.3117C87.7842 47.8032 88.5338 48.4796 89.0566 49.3404C89.5794 50.1934 89.8408 51.1694 89.8408 52.2682C89.8408 53.3517 89.5794 54.2969 89.0566 55.104C88.5338 55.9107 87.7842 56.5408 86.8075 56.9942C85.8386 57.4401 84.6816 57.6628 83.3359 57.6628ZM105.304 53.2363V56.3488H96.6881V53.2363H105.304ZM98.0374 46.5737V63.3572H93.9892V46.5737H98.0374ZM108.026 46.5737V63.3572H103.989V46.5737H108.026ZM126.775 54.6313V55.3113C126.775 56.5946 126.595 57.7475 126.234 58.7694C125.879 59.7838 125.376 60.6521 124.722 61.3744C124.069 62.0892 123.296 62.6388 122.404 63.0231C121.513 63.3996 120.529 63.5877 119.452 63.5877C118.367 63.5877 117.376 63.3996 116.476 63.0231C115.584 62.6388 114.807 62.0892 114.146 61.3744C113.492 60.6521 112.985 59.7838 112.623 58.7694C112.27 57.7475 112.093 56.5946 112.093 55.3113V54.6313C112.093 53.3478 112.27 52.1952 112.623 51.173C112.985 50.1511 113.488 49.2827 114.135 48.5679C114.789 47.8456 115.561 47.2961 116.453 46.9196C117.352 46.5353 118.344 46.3433 119.429 46.3433C120.505 46.3433 121.489 46.5353 122.382 46.9196C123.281 47.2961 124.058 47.8456 124.711 48.5679C125.365 49.2827 125.872 50.1511 126.234 51.173C126.595 52.1952 126.775 53.3478 126.775 54.6313ZM122.669 55.3113V54.6082C122.669 53.7783 122.596 53.0482 122.451 52.4181C122.312 51.7802 122.104 51.246 121.828 50.8157C121.551 50.3854 121.209 50.0627 120.801 49.8473C120.401 49.6247 119.944 49.5132 119.429 49.5132C118.891 49.5132 118.421 49.6247 118.022 49.8473C117.622 50.0627 117.287 50.3854 117.018 50.8157C116.749 51.246 116.545 51.7802 116.407 52.4181C116.276 53.0482 116.211 53.7783 116.211 54.6082V55.3113C116.211 56.1334 116.276 56.8635 116.407 57.5014C116.545 58.1315 116.749 58.6657 117.018 59.1038C117.295 59.5419 117.633 59.8721 118.033 60.095C118.441 60.318 118.913 60.4292 119.452 60.4292C119.967 60.4292 120.424 60.318 120.825 60.095C121.224 59.8721 121.559 59.5419 121.828 59.1038C122.104 58.6657 122.312 58.1315 122.451 57.5014C122.596 56.8635 122.669 56.1334 122.669 55.3113ZM144.868 46.5737V63.3572H140.832L134.891 52.9136V63.3572H130.843V46.5737H134.891L140.832 57.0174V46.5737H144.868ZM160.954 60.245V63.3572H152.003V60.245H160.954ZM153.445 46.5737V63.3572H149.397V46.5737H153.445ZM159.8 53.2363V56.2449H152.003V53.2363H159.8ZM160.988 46.5737V49.6977H152.003V46.5737H160.988Z" fill="white"/>
<path d="M60.3573 36.7988C50.0296 36.7988 41.6573 28.4315 41.6573 18.1096C41.6573 9.66908 47.2559 2.53536 54.944 0.215416V7.37621L53.9598 7.78139C51.9916 8.92898 48.0546 12.6012 48.0546 18.1096C48.0546 24.9951 53.9598 29.9133 59.8652 29.9133C64.5892 29.9133 67.7388 27.2903 68.7231 25.9787L94.3122 0.215416C95.2964 -0.57959 97.1664 -0.57959 98.7413 -0.57959H105.631V22.536H98.7413V5.97473L71.8364 32.8642C67.7389 36.307 64.684 36.7988 60.3573 36.7988Z" fill="url(#paint1_linear_29_2981)"/>
<g filter="url(#filter0_f_29_2981)">
<path d="M87.6338 18.0969L81.7208 11.6401L75.6338 18.1833L81.5468 24.6401L87.6338 18.0969Z" fill="white"/>
</g>
<path d="M103.17 36.7988C113.498 36.7988 121.87 28.4315 121.87 18.1096C121.87 9.66908 116.272 2.53536 108.583 0.215416V7.37621L109.568 7.78139C111.536 8.92898 115.473 12.6012 115.473 18.1096C115.473 24.9951 109.568 29.9133 103.662 29.9133C98.938 29.9133 95.7886 27.2903 94.8043 25.9787L69.2152 0.215416C68.231 -0.57959 66.361 -0.57959 64.7861 -0.57959H57.8967V22.536H64.7861V5.97473L91.691 32.8642C95.7886 36.307 98.8436 36.7988 103.17 36.7988Z" fill="white"/>
</g>
<defs>
<filter id="filter0_f_29_2981" x="71.9962" y="8.00251" width="19.2752" height="20.2752" filterUnits="userSpaceOnUse" color-interpolation-filters="sRGB">
<feFlood flood-opacity="0" result="BackgroundImageFix"/>
<feBlend mode="normal" in="SourceGraphic" in2="BackgroundImageFix" result="shape"/>
<feGaussianBlur stdDeviation="1.81881" result="effect1_foregroundBlur_29_2981"/>
</filter>
<linearGradient id="paint0_linear_29_2981" x1="37.2915" y1="46.5747" x2="37.2915" y2="63.3579" gradientUnits="userSpaceOnUse">
<stop stop-color="#75BB0C"/>
<stop offset="1" stop-color="#91D200"/>
</linearGradient>
<linearGradient id="paint1_linear_29_2981" x1="73.644" y1="-0.57959" x2="73.644" y2="36.7988" gradientUnits="userSpaceOnUse">
<stop stop-color="#75BB0C"/>
<stop offset="1" stop-color="#91D200"/>
</linearGradient>
<clipPath id="clip0_29_2981">
<rect width="162.394" height="68.855" fill="white" transform="translate(-0.663696 -0.57959)"/>
</clipPath>
</defs>
</svg>
