<?xml version="1.0" encoding="utf-8"?>
<!-- Generator: Adobe Illustrator 27.9.0, SVG Export Plug-In . SVG Version: 6.00 Build 0)  -->
<svg version="1.1" id="Слой_1" xmlns="http://www.w3.org/2000/svg" xmlns:xlink="http://www.w3.org/1999/xlink" x="0px" y="0px"
	 viewBox="0 0 32 20" style="enable-background:new 0 0 32 20;" xml:space="preserve" width="32px" height="20px">
<style type="text/css">
	.st0{fill:#FFFFFF;fill-opacity:0.1;}
	.st1{fill:#FFFFFF;}
	.st2{fill:#FFFFFF;fill-opacity:0.8;}
</style>
<path class="st0" d="M20.33,17.78h-8.66V2.22h8.66V17.78z"/>
<path class="st1" d="M12.23,10c0-3.16,1.48-5.97,3.78-7.78C14.32,0.9,12.2,0.11,9.89,0.11C4.43,0.11,0,4.54,0,10
	s4.43,9.89,9.89,9.89c2.31,0,4.43-0.79,6.11-2.12C13.7,15.97,12.23,13.16,12.23,10z"/>
<path class="st2" d="M32,10c0,5.46-4.43,9.89-9.89,9.89c-2.31,0-4.43-0.79-6.11-2.12c2.3-1.81,3.78-4.62,3.78-7.78
	s-1.48-5.97-3.78-7.78c1.68-1.32,3.81-2.12,6.11-2.12C27.57,0.11,32,4.54,32,10z"/>
</svg>
