<?xml version="1.0" encoding="utf-8"?>
<!-- Generator: Adobe Illustrator 27.9.0, SVG Export Plug-In . SVG Version: 6.00 Build 0)  -->
<svg version="1.1" id="Слой_1" xmlns="http://www.w3.org/2000/svg" xmlns:xlink="http://www.w3.org/1999/xlink" x="0px" y="0px"
	 viewBox="0 0 32 20" style="enable-background:new 0 0 32 20;" xml:space="preserve" width="32px" height="20px">
<style type="text/css">
	.st0{fill:#E8E2DE;}
	.st1{fill:#FFFFFF;}
	.st2{fill:#D8D9DF;}
</style>
<path class="st0" d="M20.33,17.78h-8.66V2.22h8.66V17.78z"/>
<path class="st1" d="M12.23,10c0-3.16,1.48-5.97,3.78-7.78C14.32,0.9,12.2,0.11,9.89,0.11C4.43,0.11,0,4.54,0,10
	c0,5.46,4.43,9.89,9.89,9.89c2.31,0,4.43-0.79,6.11-2.12C13.7,15.97,12.23,13.16,12.23,10z"/>
<path class="st1" d="M32,10c0,5.46-4.43,9.89-9.89,9.89c-2.31,0-4.43-0.79-6.11-2.12c2.3-1.81,3.78-4.62,3.78-7.78
	c0-3.16-1.48-5.97-3.78-7.78c1.68-1.32,3.81-2.12,6.11-2.12C27.57,0.11,32,4.54,32,10z"/>
<path class="st2" d="M7.44,10.06c0-0.43,0.28-0.79,0.75-0.79c0.44,0,0.74,0.34,0.74,0.79c0,0.45-0.3,0.79-0.74,0.79
	C7.73,10.85,7.44,10.49,7.44,10.06z M9.43,10.06V8.83H8.9v0.3C8.73,8.91,8.47,8.77,8.12,8.77c-0.69,0-1.23,0.54-1.23,1.29
	c0,0.75,0.54,1.29,1.23,1.29c0.35,0,0.61-0.14,0.78-0.36v0.3h0.53V10.06z M27.5,10.06c0-0.43,0.28-0.79,0.75-0.79
	c0.44,0,0.74,0.34,0.74,0.79c0,0.45-0.3,0.79-0.74,0.79C27.78,10.85,27.5,10.49,27.5,10.06z M29.49,10.06V7.85h-0.54v1.29
	c-0.17-0.22-0.43-0.36-0.78-0.36c-0.69,0-1.23,0.54-1.23,1.29c0,0.75,0.54,1.29,1.23,1.29c0.35,0,0.61-0.14,0.78-0.36v0.3h0.54
	V10.06z M16.07,9.25c0.34,0,0.57,0.22,0.62,0.6h-1.28C15.47,9.49,15.69,9.25,16.07,9.25z M16.08,8.77c-0.72,0-1.22,0.52-1.22,1.29
	c0,0.78,0.52,1.29,1.26,1.29c0.37,0,0.71-0.09,1.01-0.34l-0.26-0.4c-0.21,0.16-0.47,0.26-0.72,0.26c-0.34,0-0.66-0.16-0.74-0.6h1.83
	c0.01-0.07,0.01-0.13,0.01-0.21C17.24,9.3,16.77,8.77,16.08,8.77z M22.53,10.06c0-0.43,0.28-0.79,0.75-0.79
	c0.44,0,0.74,0.34,0.74,0.79c0,0.45-0.3,0.79-0.74,0.79C22.82,10.85,22.53,10.49,22.53,10.06z M24.52,10.06V8.83h-0.53v0.3
	c-0.17-0.22-0.43-0.36-0.78-0.36c-0.69,0-1.23,0.54-1.23,1.29c0,0.75,0.54,1.29,1.23,1.29c0.35,0,0.61-0.14,0.78-0.36v0.3h0.53
	V10.06z M19.51,10.06c0,0.75,0.52,1.29,1.31,1.29c0.37,0,0.62-0.08,0.88-0.29l-0.26-0.43c-0.2,0.14-0.41,0.22-0.64,0.22
	c-0.43-0.01-0.74-0.31-0.74-0.79c0-0.47,0.31-0.78,0.74-0.79c0.23,0,0.44,0.08,0.64,0.22l0.26-0.43c-0.27-0.21-0.51-0.29-0.88-0.29
	C20.03,8.77,19.51,9.32,19.51,10.06z M26.41,8.77c-0.31,0-0.51,0.14-0.65,0.36v-0.3h-0.53v2.46h0.54V9.91
	c0-0.41,0.17-0.63,0.52-0.63c0.11,0,0.22,0.02,0.33,0.06l0.16-0.5C26.67,8.79,26.52,8.77,26.41,8.77z M12.08,9.03
	c-0.26-0.17-0.61-0.26-1-0.26c-0.62,0-1.02,0.3-1.02,0.79c0,0.4,0.3,0.65,0.85,0.73l0.25,0.04c0.29,0.04,0.43,0.12,0.43,0.26
	c0,0.19-0.2,0.3-0.56,0.3c-0.37,0-0.64-0.12-0.82-0.26l-0.25,0.42c0.29,0.22,0.66,0.32,1.06,0.32c0.71,0,1.12-0.33,1.12-0.8
	c0-0.43-0.32-0.66-0.86-0.74l-0.25-0.04c-0.23-0.03-0.42-0.08-0.42-0.24c0-0.18,0.17-0.29,0.47-0.29c0.31,0,0.62,0.12,0.77,0.21
	L12.08,9.03z M18.97,8.77c-0.31,0-0.51,0.14-0.65,0.36v-0.3H17.8v2.46h0.53V9.91c0-0.41,0.17-0.63,0.52-0.63
	c0.11,0,0.22,0.02,0.33,0.06l0.16-0.5C19.24,8.79,19.08,8.77,18.97,8.77z M14.41,8.83h-0.87V8.09H13v0.75h-0.5v0.49H13v1.12
	c0,0.57,0.22,0.91,0.85,0.91c0.23,0,0.5-0.07,0.67-0.19l-0.15-0.46c-0.16,0.09-0.33,0.14-0.47,0.14c-0.27,0-0.35-0.16-0.35-0.41
	V9.32h0.87V8.83z M6.42,11.29V9.75c0-0.58-0.37-0.97-0.97-0.98C5.14,8.77,4.82,8.86,4.59,9.21C4.42,8.94,4.15,8.77,3.78,8.77
	c-0.26,0-0.52,0.08-0.72,0.36v-0.3H2.52v2.46h0.54V9.93c0-0.43,0.24-0.65,0.6-0.65c0.35,0,0.53,0.23,0.53,0.65v1.37h0.54V9.93
	c0-0.43,0.25-0.65,0.6-0.65c0.37,0,0.54,0.23,0.54,0.65v1.37H6.42z"/>
</svg>
