<?xml version="1.0" encoding="utf-8"?>
<!-- Generator: Adobe Illustrator 27.9.0, SVG Export Plug-In . SVG Version: 6.00 Build 0)  -->
<svg version="1.1" id="Слой_1" xmlns="http://www.w3.org/2000/svg" xmlns:xlink="http://www.w3.org/1999/xlink" x="0px" y="0px"
	 viewBox="0 0 38 11" style="enable-background:new 0 0 38 11;" xml:space="preserve" width="38px" height="11px">
<style type="text/css">
	.st0{fill-rule:evenodd;clip-rule:evenodd;fill:#FFFFFF;}
</style>
<path class="st0" d="M33.54,0.5h-7.02c0.38,2.21,2.64,4.29,5.13,4.29h5.59c0.08-0.21,0.08-0.5,0.08-0.71
	C37.31,2.07,35.65,0.5,33.54,0.5z"/>
<path class="st0" d="M27.12,5.14v5.36h3.4V7.64h3.02c1.66,0,3.1-1.07,3.55-2.5H27.12z"/>
<path class="st0" d="M15.04,0.5v10h3.02c0,0,0.76,0,1.13-0.71c2.04-3.86,2.64-5,2.64-5h0.38v5.71h3.4v-10h-3.02
	c0,0-0.76,0.07-1.13,0.71c-1.74,3.29-2.64,5-2.64,5h-0.38V0.5H15.04z"/>
<path class="st0" d="M0.69,10.5v-10h3.4c0,0,0.98,0,1.51,1.43c1.36,3.79,1.51,4.29,1.51,4.29s0.3-0.93,1.51-4.29
	C9.15,0.5,10.13,0.5,10.13,0.5h3.4v10h-3.4V5.14H9.75L7.86,10.5H6.35L4.46,5.14H4.09v5.36H0.69z"/>
</svg>
