<svg width="91" height="97" viewBox="0 0 91 97" fill="none" xmlns="http://www.w3.org/2000/svg">
<path d="M36.3304 68.6258C36.3019 68.2886 36.6503 67.9419 37.983 66.9852C38.9122 66.3184 39.7671 65.8201 39.8832 65.8807C39.9974 65.9395 40.8866 66.5495 43.6188 68.4856L43.2989 68.9593L43.2488 69.0332C43.018 69.3739 42.3704 70.3301 40.8542 72.5721L38.6647 72.5588L37.5147 70.8064C36.8826 69.8421 36.3495 68.8608 36.3304 68.6258Z" fill="#86C905"/>
<path d="M32.6691 84.6361C33.7677 78.2025 34.6663 72.8524 34.6663 72.7482C34.6663 72.6346 35.4603 72.5588 36.6655 72.5588C37.766 72.5588 38.6609 72.6232 38.6571 72.7009C38.6513 72.7785 37.726 78.2574 34.5464 96.9029L32.6082 96.9503C30.8679 96.992 30.668 96.9635 30.6699 96.6661C30.6699 96.4842 31.5705 91.0698 32.6691 84.6361Z" fill="#86C905"/>
<path d="M31.4312 0.971892C32.111 0.752132 33.2267 0.452803 33.9064 0.305033C34.5861 0.159158 35.9512 0.0303327 36.9375 0.0189658C37.9237 0.00949338 38.6949 0.0379107 38.6511 0.0852728C38.6073 0.132635 37.7562 0.377024 36.7623 0.62899C35.7685 0.880957 34.3119 1.37921 33.5256 1.73537C32.7412 2.09343 31.4579 2.80765 30.6773 3.32484C29.8947 3.84014 28.6058 4.90105 27.8099 5.68348C27.0141 6.464 26.0145 7.61585 25.5861 8.24103C25.1596 8.86621 24.4646 10.0597 24.042 10.8933C23.6212 11.7269 23.0614 13.1345 22.8006 14.0192C22.5416 14.9039 22.2332 16.609 22.1209 17.8082C22.0066 19.0074 21.9133 21.0743 21.9114 22.4023C21.9114 24.7799 21.9038 24.8178 21.483 24.8216C21.247 24.8235 20.6682 24.9996 20.1979 25.2137C19.7276 25.4259 19.0631 25.8086 18.1035 26.5228V21.8813C18.1035 18.3803 18.1778 16.8799 18.4062 15.7716C18.5719 14.9646 18.8822 13.7919 19.0955 13.1667C19.3068 12.5415 19.878 11.2722 20.3635 10.3477C20.849 9.4213 21.8086 7.97202 22.4979 7.12707C23.1871 6.28024 24.4399 5.03556 25.2814 4.35734C26.123 3.67911 27.5719 2.73187 28.5029 2.24878C29.4321 1.76568 30.7515 1.19165 31.4312 0.971892Z" fill="#2F4055"/>
<path d="M32.145 68.5785C32.1183 68.4743 33.3406 67.4986 34.8581 66.4112C36.3756 65.3237 37.6836 64.4295 37.7616 64.4239C37.8397 64.4182 38.2909 64.6683 38.7612 64.9808C39.2315 65.2934 39.6199 65.6136 39.6218 65.6913C39.6218 65.7689 38.8945 66.3657 38.0034 67.0174C36.8154 67.8851 36.3794 68.3151 36.3737 68.6277C36.3698 68.8626 36.8839 69.8421 38.666 72.5588L34.7629 72.572L33.4777 70.67C32.7714 69.6261 32.1716 68.6846 32.145 68.5785Z" fill="#75BB0C"/>
<path d="M41.4271 19.3427C42.6837 18.7384 44.226 17.9332 44.8543 17.5524C45.4826 17.1735 46.168 16.8609 46.3774 16.859C46.6173 16.8552 47.5255 17.649 48.8202 18.9884C49.955 20.163 51.1754 21.4645 52.1826 22.6391V29.2224C52.1845 33.485 52.2512 35.8058 52.3749 35.8058C52.4911 35.8058 52.5025 35.9346 52.4016 36.1373C52.3102 36.3192 52.1864 36.9804 52.1255 37.6055C52.0646 38.2307 51.7961 39.4242 51.5276 40.2578C51.2611 41.0914 50.6861 42.3702 50.2539 43.0995C49.7893 43.8801 48.7707 45.1077 47.7787 46.0834C46.8515 46.9946 46.0271 47.724 45.949 47.7031C45.871 47.6823 45.2065 47.9722 44.4735 48.3454C43.7404 48.7186 42.541 49.2055 41.8079 49.429C41.0749 49.6507 40.1324 49.8325 39.7136 49.8306C39.2947 49.8288 38.4379 49.698 37.8096 49.5408C37.1813 49.3835 35.8523 48.8588 34.8585 48.3757C33.3163 47.6255 32.7984 47.2428 31.3361 45.7708C30.3937 44.8235 29.3446 43.5788 29.0038 43.0048C28.6611 42.4308 28.1051 41.1956 27.1474 38.5528L26.957 22.7338H28.147C28.802 22.7338 30.2147 22.6031 31.2885 22.4421C32.3624 22.281 33.8817 21.9874 34.6681 21.7866C35.4525 21.5877 36.7815 21.2031 37.6192 20.9322C38.457 20.6631 40.1705 19.947 41.4271 19.3427Z" fill="#F2D1A5"/>
<path d="M65.8924 52.2878C66.5721 52.0586 67.6878 51.7592 68.3675 51.6228C69.0473 51.4864 70.3115 51.369 71.1759 51.3576C72.0403 51.3481 72.7467 51.405 72.7486 51.4826C72.7486 51.5603 72.2135 51.7384 71.5586 51.8786C70.9036 52.0169 69.6813 52.4128 68.8435 52.7557C68.0058 53.1005 66.9777 53.5798 66.5588 53.8204C66.1399 54.061 65.325 54.5972 64.75 55.0121C64.175 55.4251 63.1431 56.3249 62.4596 57.0107C61.776 57.6947 60.864 58.7669 60.4337 59.3921C60.0054 60.0173 59.3523 61.1256 58.9848 61.8549C58.6174 62.5843 58.0995 63.8631 57.8367 64.6967C57.5721 65.5302 57.2522 66.9795 57.1247 67.9173C56.9933 68.8892 56.9419 70.3555 57.0066 71.3274C57.0694 72.2651 57.3265 73.8414 57.5797 74.8322C57.8329 75.823 58.2899 77.187 58.5983 77.8633C58.9049 78.5397 59.5408 79.6915 60.0111 80.4209C60.4813 81.1503 61.4619 82.3741 62.1892 83.1414C62.9165 83.9086 64.0703 84.9449 64.75 85.4451C65.4297 85.9452 66.673 86.6954 67.5108 87.1141C68.3485 87.5309 69.805 88.0955 70.7475 88.3664C71.69 88.6373 72.6743 88.8665 72.9371 88.8741C73.3159 88.8874 73.2779 88.9234 72.7467 89.0503C72.364 89.1412 71.2692 89.1261 70.1763 89.0143C69.1291 88.9082 67.545 88.607 66.654 88.3474C65.7629 88.0879 64.3083 87.5025 63.4172 87.0459C62.5262 86.5912 61.241 85.7993 60.5613 85.2897C59.8816 84.7801 58.8097 83.8139 58.1814 83.1452C57.553 82.4764 56.7286 81.461 56.3497 80.8907C55.969 80.3205 55.3483 79.235 54.9694 78.4791C54.5886 77.7232 54.0726 76.4027 53.8194 75.5426C53.5681 74.6825 53.2672 73.148 53.153 72.1325C53.0083 70.8443 53.0045 69.7265 53.1378 68.4383C53.2444 67.4228 53.5071 65.9508 53.7242 65.1703C53.9393 64.3879 54.4153 63.1091 54.7809 62.3286C55.1445 61.5461 55.9309 60.1916 56.5268 59.3182C57.1228 58.443 58.168 57.2059 58.8477 56.5655C59.5275 55.9271 60.5994 55.0556 61.2277 54.6294C61.856 54.2031 62.8841 53.5969 63.5124 53.2805C64.1408 52.9641 65.2127 52.517 65.8924 52.2878Z" fill="#74A700"/>
<path d="M19.625 25.496C20.0953 25.2327 20.8683 24.939 21.3386 24.8443C21.8089 24.7496 22.302 24.7041 22.4334 24.7439C22.5648 24.7856 22.7571 24.8178 22.8618 24.8178C22.9665 24.8178 23.0522 25.0319 23.0522 25.2914C23.0522 25.6072 22.7882 26.0018 22.2601 26.4755C21.826 26.8657 21.2701 27.6122 21.0245 28.1331C20.6989 28.8284 20.5808 29.4195 20.5789 30.3592C20.577 31.2306 20.6989 31.9088 20.9578 32.4905C21.1673 32.9603 21.7251 33.7276 22.1954 34.1955C22.6657 34.6653 23.0522 35.2185 23.0522 35.4269C23.0522 35.6353 22.9018 35.8513 22.719 35.9081C22.5362 35.9649 21.9993 35.9555 21.529 35.8854C21.0587 35.8153 20.2438 35.5633 19.7202 35.3246C19.1967 35.0859 18.4313 34.5194 18.0181 34.0686C17.6049 33.6177 17.1137 32.8864 16.9233 32.4431C16.7329 31.9998 16.5673 31.1473 16.554 30.5486C16.5406 29.9499 16.6377 29.1183 16.771 28.7015C16.9043 28.2847 17.1918 27.6879 17.4126 27.3753C17.6335 27.0628 18.0276 26.6194 18.2904 26.3902C18.5531 26.161 19.1548 25.7575 19.625 25.496Z" fill="#E3A76F"/>
<path d="M52.1504 30.344C52.1333 27.2219 52.1942 24.8178 52.2932 24.7363C52.3903 24.6568 52.9177 24.6416 53.468 24.7041C54.0182 24.7666 54.7893 24.9466 55.8955 25.3899L55.8003 35.2375L55.1815 35.5008C54.8407 35.6448 54.22 35.8229 53.8011 35.8967C53.3823 35.9706 52.8473 35.9801 52.1828 35.8058L52.1504 30.344Z" fill="#E3A76F"/>
<path d="M29.4914 51.136C29.4761 49.5124 29.5333 48.1256 29.6208 48.0574C29.7084 47.9873 29.8074 47.9305 29.8436 47.9305C29.8779 47.9305 30.3996 48.1749 31.0012 48.4723C31.6029 48.7717 32.4178 49.1127 33.524 49.4461L33.5278 54.2297C33.5297 57.0676 33.4611 58.9356 33.3602 58.8238C33.265 58.7196 32.3644 57.6113 29.5218 54.0876L29.4914 51.136Z" fill="#E3A76F"/>
<path d="M22.0764 57.2874C22.1412 57.1718 23.8642 56.433 25.9034 55.6467C27.9425 54.8605 29.6637 54.2732 29.7284 54.3414C29.7932 54.4096 31.6172 56.6622 33.7801 59.3448C35.943 62.0274 37.7555 64.2231 37.8089 64.2231C37.8622 64.2231 39.3358 62.4536 41.0856 60.292L41.1574 60.2033C42.885 58.0691 44.6738 55.8591 45.9959 54.2335L49.7581 55.6752C51.8277 56.469 53.5622 57.2249 53.6136 57.3556C53.665 57.4863 52.3361 60.3204 50.6606 63.6547C48.57 67.815 47.4619 69.8213 47.1268 70.0486C46.7023 70.3366 46.5728 70.348 46.1273 70.1263C45.8455 69.9861 44.3299 68.965 42.7592 67.8548C41.1884 66.7465 39.4748 65.5189 38.9512 65.1267C38.4276 64.7346 37.9345 64.4144 37.8565 64.4125C37.7784 64.4125 36.4209 65.3295 34.8406 66.4491C33.2622 67.5687 31.463 68.8475 30.8423 69.2908C30.2235 69.7341 29.5247 70.1452 29.2886 70.204C29.024 70.2722 28.6946 70.1812 28.4242 69.9672C28.1843 69.7777 26.6383 66.9076 24.9724 63.56C23.3121 60.2257 22.0098 57.4029 22.0764 57.2874Z" fill="#D8DCE5"/>
<path d="M5.26255 64.2667C5.98986 63.7154 7.08845 63.0201 7.70533 62.717C8.32221 62.4138 8.90102 62.2036 8.9905 62.2471C9.07999 62.2926 8.65921 62.8193 8.05566 63.4179C7.4521 64.0166 6.66386 64.9335 6.30592 65.4545C5.94607 65.9755 5.42058 66.9133 5.13498 67.5384C4.85129 68.1636 4.48383 69.251 4.31628 69.9539C4.05544 71.0546 4.01355 72.9434 4.01355 83.4521C4.01355 91.2195 4.08209 95.8098 4.20395 96.0504C4.30866 96.2588 4.63043 96.5544 4.91793 96.7059C5.40534 96.9636 5.2873 96.9844 3.25197 96.9977C1.10049 97.0109 1.05289 97.0034 0 95.9557L0.00571188 84.4941C0.0114238 73.8906 0.0380792 72.9263 0.371272 71.6116C0.569284 70.8292 1.03004 69.5939 1.3937 68.8646C1.75926 68.1352 2.48086 67.0269 2.99874 66.4017C3.51662 65.7766 4.53523 64.8161 5.26255 64.2667Z" fill="#D8DCE5"/>
<path d="M12.1282 77.6038L12.5776 77.1643C12.8536 76.8953 13.2516 76.7286 13.6133 76.7305C13.9598 76.7324 14.3768 76.9086 15.066 77.5792L15.0565 96.9977H12.2006L12.1282 77.6038Z" fill="#D8DCE5"/>
<path d="M60.5612 96.9977V91.2195C60.5612 88.0406 60.605 85.4413 60.6564 85.4413C60.7078 85.4413 61.2009 85.7406 61.7512 86.1063C62.3014 86.4738 62.9012 86.8148 63.0839 86.8641C63.3905 86.9493 63.4171 87.3566 63.4171 96.9977H60.5612Z" fill="#D8DCE5"/>
<path d="M36.7611 0.628969C37.7568 0.377003 38.606 0.132614 38.6498 0.0852518C38.6936 0.0378897 38.9715 0 39.2686 0C39.5656 0 40.4281 0.128825 41.1878 0.287962C41.9474 0.447099 43.126 0.7559 43.8057 0.973765C44.4873 1.19163 45.803 1.76566 46.7302 2.24875C47.6574 2.73185 49.0721 3.6412 49.8717 4.27017C50.6714 4.89914 51.8652 6.04909 52.5239 6.82773C53.1827 7.60446 54.0528 8.7942 54.4546 9.47243C54.8582 10.1507 55.4104 11.2362 55.6845 11.8879C55.9568 12.5396 56.3528 13.6896 56.5622 14.4455C56.7717 15.2014 57.0249 16.6715 57.1277 17.7134C57.2305 18.7554 57.3162 21.1216 57.3181 22.9706C57.3219 24.8197 57.28 26.3333 57.2286 26.3333C57.1772 26.3333 56.726 26.0511 56.2291 25.7044C55.7321 25.3596 54.8753 24.975 54.3251 24.8519C53.7748 24.7287 53.0685 24.6283 52.7543 24.6283C52.1888 24.6283 52.1831 24.6169 52.1831 22.5444L49.6128 19.7974C48.1981 18.2875 46.8501 16.9973 46.614 16.931C46.3075 16.8439 45.7554 17.0561 44.6625 17.6774C43.8247 18.1549 42.2407 18.9714 41.1402 19.4924C40.0416 20.0133 38.4556 20.6594 37.6178 20.9303C36.7801 21.2012 35.453 21.5877 34.6667 21.7866C33.8823 21.9874 32.361 22.281 31.2872 22.4421C30.2133 22.6031 28.1152 22.7357 26.6225 22.7376C24.075 22.7414 23.8827 22.7679 23.4752 23.1639C23.1972 23.4348 23.0449 23.8061 23.0468 24.2021C23.0525 24.7704 23.0087 24.814 21.9102 24.723L21.9121 22.3549C21.9121 21.0534 22.0054 19.0074 22.1196 17.8082C22.2319 16.609 22.5404 14.9039 22.7993 14.0192C23.0601 13.1345 23.6199 11.7269 24.0407 10.8933C24.4634 10.0597 25.1583 8.86619 25.5848 8.24101C26.0132 7.61583 27.0128 6.46588 27.8086 5.68346C28.6045 4.90103 29.8935 3.84012 30.676 3.32482C31.4566 2.80763 32.7399 2.09341 33.5243 1.73535C34.3107 1.37919 35.7672 0.880936 36.7611 0.628969Z" fill="#3C526E"/>
<path d="M36.3239 86.5268C37.2873 80.7714 38.2164 75.2755 38.3859 74.3112L38.6962 72.5588H39.8234C40.5964 72.5588 40.9505 72.6327 40.9524 72.7956C40.9524 72.9263 41.853 78.2972 42.9516 84.7308C44.0502 91.1645 44.9489 96.5581 44.9489 96.7135C44.9489 96.9597 44.2463 96.9976 34.5723 96.9901L36.3239 86.5268Z" fill="#9FE700"/>
<path d="M23.0172 24.687C22.9867 23.7739 23.0495 23.5428 23.436 23.1658C23.8511 22.7603 24.0339 22.7243 26.9565 22.8285L27.1469 38.5528L27.7656 40.2578C28.1046 41.1956 28.6605 42.4308 29.0032 43.0048C29.344 43.5788 30.3931 44.8235 31.3356 45.7708C32.7978 47.2428 33.3157 47.6255 34.8579 48.3757C35.8537 48.8588 37.1807 49.3836 37.809 49.5408C38.4373 49.698 39.3151 49.8269 39.7606 49.8269C40.2061 49.825 41.2343 49.6109 42.0454 49.3513C42.8564 49.0899 44.054 48.5992 44.7071 48.262C45.3582 47.9229 45.939 47.688 45.9961 47.741C46.0551 47.7941 46.1027 49.2434 46.1046 54.0876L41.9578 59.1724C38.6354 63.2417 37.7652 64.206 37.5844 64.0033C37.4625 63.8631 36.4972 62.6847 33.5213 59.0132L33.5251 49.4461L32.8111 49.2301C32.4189 49.1126 31.604 48.7716 31.0024 48.4723C30.4007 48.1749 29.8657 47.9722 29.8124 48.0252C29.761 48.0782 29.5173 47.9286 29.2717 47.6937C29.0261 47.4588 28.3673 46.8828 27.8056 46.4149C27.244 45.947 26.4043 45.0509 25.9378 44.4257C25.4733 43.8005 24.7707 42.607 24.3785 41.7734C23.9863 40.9398 23.5274 39.6402 23.3599 38.8843C23.1904 38.1284 23.0533 37.1698 23.0533 36.753C23.0533 36.2813 22.9639 35.9895 22.8153 35.9801C22.625 35.9687 22.625 35.9498 22.8153 35.8853C22.9467 35.8418 23.0533 35.6353 23.0533 35.4269C23.0533 35.2185 22.6687 34.6634 22.1966 34.1955C21.7263 33.7275 21.1684 32.9584 20.959 32.4904C20.7 31.9088 20.5782 31.2306 20.5801 30.3591C20.582 29.4195 20.7 28.8284 21.0256 28.1331C21.2712 27.6121 21.8272 26.8657 22.2613 26.4754C23.0267 25.7896 23.0514 25.729 23.0172 24.687Z" fill="#F2BB88"/>
<path d="M56.1347 35.0631C55.8224 35.2261 55.8015 34.9476 55.8015 30.4065C55.8015 27.7485 55.8453 25.5755 55.8967 25.5755C55.9481 25.5755 56.3555 25.8199 56.801 26.1174C57.3665 26.4963 57.7778 26.9983 58.1643 27.775C58.6117 28.6787 58.7183 29.1429 58.724 30.217C58.7298 31.1946 58.6193 31.7933 58.3033 32.4904C58.0691 33.0114 57.5607 33.7635 57.1723 34.1633C56.7858 34.563 56.3174 34.9665 56.1347 35.0631Z" fill="#F2BB88"/>
<path d="M9.06678 62.3759C9.01918 62.2983 11.8675 61.1066 15.3975 59.7293C18.9274 58.3521 21.8652 57.2229 21.9261 57.2192C21.9871 57.2154 22.0423 57.3196 22.048 57.4503C22.0518 57.581 23.415 60.4095 25.0772 63.7362C27.0763 67.7373 28.2435 69.8705 28.5272 70.0353C28.7709 70.1774 29.1402 70.2305 29.3839 70.1566C29.62 70.0865 30.3093 69.6811 30.9166 69.2567C31.6401 68.7528 32.0666 68.5576 32.1542 68.6959C32.2285 68.8115 32.8396 69.7493 34.7379 72.6535L30.5739 96.9977H15.0566L15.049 77.5792L14.6244 77.1472C14.3636 76.882 13.9809 76.721 13.6287 76.7267C13.305 76.7305 12.8709 76.9161 12.1912 77.5792L12.2007 96.9977H8.86877C6.287 96.9977 5.40737 96.9333 4.96565 96.7135C4.6515 96.5581 4.30879 96.2588 4.20407 96.0504C4.08221 95.8098 4.01367 91.2195 4.01367 83.4521C4.01367 73.057 4.05746 71.0413 4.31069 69.9539C4.47443 69.251 4.939 67.9931 5.34454 67.1595C5.75199 66.3259 6.54594 65.0907 7.11332 64.4125C7.6788 63.7362 8.36993 63.0314 8.64791 62.8496C8.92589 62.6677 9.11438 62.4536 9.06678 62.3759Z" fill="#E4EAF8"/>
<path d="M50.6607 63.6547C52.3362 60.3204 53.6556 57.5071 53.5928 57.4029C53.53 57.2987 53.5509 57.2154 53.6404 57.2173C53.7299 57.2192 54.5105 57.4957 55.3768 57.833C56.2431 58.1702 56.9514 58.5093 56.9476 58.587C56.9457 58.6646 56.6315 59.1762 56.2507 59.7237C55.868 60.2712 55.2321 61.4003 54.8342 62.2339C54.4382 63.0674 53.9374 64.3898 53.7223 65.1703C53.5071 65.9527 53.2444 67.4228 53.1378 68.4383C53.0045 69.7265 53.0083 70.8443 53.153 72.1325C53.2672 73.148 53.5738 74.7053 53.8346 75.59C54.0936 76.4766 54.6819 77.9259 55.1407 78.8106C55.5977 79.6972 56.3916 80.976 56.9038 81.6523C57.416 82.3306 58.4479 83.4597 60.5613 85.4413V96.9977L45.044 96.9996L40.8553 72.6062L42.1881 70.5961C42.9211 69.4916 43.5627 68.5823 43.6161 68.5785C43.6694 68.5728 44.2901 68.9555 44.9964 69.4272C45.7028 69.8989 46.3882 70.2854 46.5196 70.2873C46.651 70.2873 46.9499 70.1604 47.186 70.0031C47.4487 69.827 48.7948 67.3679 50.6607 63.6547Z" fill="#E4EAF8"/>
<path d="M63.4172 96.9977V92.072C63.4172 89.3629 63.461 87.1463 63.5124 87.1463C63.5639 87.1463 63.9504 87.3168 64.3692 87.5252C64.7881 87.7336 65.8372 88.1106 66.7016 88.3626C67.566 88.6146 69.0853 88.9044 70.0811 89.0067C71.1568 89.1166 72.5068 89.128 73.413 89.0313C74.2508 88.9442 75.1285 88.8665 75.3646 88.8608C75.7911 88.8514 75.793 88.8646 75.7949 91.8352C75.7968 93.4758 75.7321 95.1089 75.6521 95.4631C75.5721 95.8174 75.3037 96.3081 74.5992 96.9977H63.4172Z" fill="#E4EAF8"/>
<path d="M71.5584 51.8786C72.2134 51.7384 72.7617 51.549 72.7769 51.4561C72.7922 51.3614 73.4357 51.3482 74.2506 51.4258C75.0464 51.4997 76.404 51.7687 77.2684 52.0188C78.1328 52.2708 79.5455 52.8259 80.4099 53.2502C81.2743 53.6746 82.4947 54.3888 83.1231 54.8378C83.7514 55.2868 84.8518 56.2397 85.5677 56.9539C86.2836 57.6701 87.3213 58.9375 87.8734 59.771C88.4237 60.6046 89.2005 62.0539 89.5984 62.9917C89.9944 63.9294 90.4876 65.5056 90.6913 66.4965C90.994 67.9628 91.0454 68.7869 90.9674 70.9485C90.8912 73.0476 90.7675 73.9569 90.3733 75.3058C90.0992 76.2436 89.5166 77.7345 89.0786 78.6212C88.6407 79.5059 87.7973 80.8699 87.2032 81.6523C86.6111 82.4329 85.621 83.5336 85.0042 84.0943C84.3892 84.657 83.4125 85.4337 82.8375 85.8221C82.2606 86.2086 81.1905 86.8262 80.4575 87.1937C79.7245 87.5593 78.3955 88.0898 77.5064 88.3702C76.2669 88.7623 75.4882 88.8836 74.1744 88.8912C72.8359 88.9006 72.0858 88.7889 70.7473 88.3872C69.8048 88.105 68.3483 87.5309 67.5106 87.1141C66.6728 86.6955 65.4295 85.9452 64.7498 85.4451C64.0682 84.945 62.9163 83.9087 62.189 83.1414C61.4617 82.3741 60.4811 81.1503 60.0109 80.4209C59.5406 79.6916 58.9047 78.5397 58.5981 77.8634C58.2897 77.1851 57.8327 75.823 57.5795 74.8322C57.3263 73.8414 57.0692 72.2652 57.0064 71.3274C56.9417 70.3555 56.9931 68.8892 57.1245 67.9173C57.252 66.9796 57.5719 65.5303 57.8365 64.6967C58.0993 63.8631 58.6172 62.5843 58.9846 61.855C59.3521 61.1256 60.0052 60.0173 60.4335 59.3921C60.8638 58.767 61.7758 57.6947 62.4594 57.0108C63.1429 56.325 64.1729 55.4251 64.7498 55.0121C65.3248 54.5972 66.1397 54.0611 66.5586 53.8205C66.9775 53.5799 68.0056 53.1006 68.8433 52.7558C69.6811 52.4129 70.9034 52.0169 71.5584 51.8786Z" fill="#7FB801"/>
<path d="M69.7069 58.0243C70.5941 57.5829 71.8336 57.096 72.4619 56.9407C73.0902 56.7853 73.947 56.6925 74.3659 56.7342C74.7847 56.7758 75.6853 56.9899 76.365 57.2097C77.0447 57.4294 78.09 57.8822 78.686 58.2175C79.2819 58.551 80.2244 59.2008 80.7803 59.6611C81.3363 60.1234 82.1759 60.9532 82.6481 61.5064C83.1203 62.0577 83.8514 63.1735 84.276 63.9825C84.7006 64.7914 85.2127 66.0929 85.4127 66.8753C85.664 67.851 85.7744 68.9214 85.7687 70.2854C85.763 71.729 85.6468 72.6781 85.346 73.7428C85.1194 74.5499 84.7082 75.6582 84.434 76.2057C84.1598 76.7532 83.5734 77.7118 83.1298 78.337C82.6862 78.9622 81.8618 79.8886 81.2963 80.3944C80.7308 80.9021 79.7103 81.6485 79.0306 82.0521C78.3509 82.4575 77.1076 83.0069 76.2698 83.2721C75.4321 83.5392 74.4039 83.7628 73.9851 83.7685C73.5662 83.7741 72.5381 83.5506 71.7003 83.2702C70.8626 82.9898 69.705 82.4916 69.13 82.1619C68.555 81.8342 67.5897 81.1579 66.988 80.6615C66.3864 80.1652 65.4991 79.2255 65.0155 78.5738C64.5338 77.9221 63.8903 76.8991 63.5875 76.3004C63.2848 75.7017 62.8526 74.5499 62.628 73.7428C62.3309 72.6819 62.2148 71.7233 62.2091 70.2854C62.2053 69.1923 62.3157 67.8264 62.4547 67.2542C62.5918 66.6821 62.9193 65.7008 63.182 65.0756C63.4428 64.4504 63.9798 63.4274 64.3758 62.8022C64.7699 62.177 65.7676 61.0252 66.5939 60.2446C67.6658 59.2311 68.5588 58.5945 69.7069 58.0243Z" fill="#A4ED00"/>
<path d="M67.2243 57.3025C67.6965 57.132 68.5951 56.88 69.2234 56.7398C69.8518 56.5997 71.0303 56.4784 71.8414 56.4708C72.6525 56.4633 73.3531 56.5201 73.3969 56.5978C73.4407 56.6754 72.9914 56.8478 72.3974 56.9786C71.8033 57.1093 70.5924 57.5791 69.7051 58.0205C68.5628 58.5908 67.6584 59.2368 66.5922 60.2446C65.7659 61.0252 64.7682 62.177 64.3741 62.8022C63.978 63.4274 63.4411 64.4504 63.1803 65.0756C62.9175 65.7008 62.59 66.6821 62.453 67.2542C62.314 67.8264 62.2035 69.1923 62.2074 70.2854C62.2131 71.7233 62.3292 72.6819 62.6262 73.7429C62.8509 74.5499 63.2831 75.7018 63.5858 76.3004C63.8885 76.8991 64.5321 77.9221 65.0138 78.5738C65.4974 79.2255 66.4703 80.2277 67.1767 80.8036C67.8831 81.3795 69.0616 82.143 69.7946 82.4992C70.5277 82.8553 71.7272 83.3176 72.4602 83.5241C73.7568 83.8897 73.772 83.8992 73.0314 83.9466C72.6125 83.9731 71.7557 83.9731 71.1274 83.9466C70.4991 83.9181 69.4272 83.7723 68.7475 83.6188C68.0677 83.4672 66.8245 83.0107 65.9867 82.6053C65.149 82.1998 63.9533 81.4572 63.3307 80.9552C62.7062 80.4531 61.7847 79.5305 61.2801 78.9053C60.7775 78.2801 60.1168 77.2988 59.8122 76.7267C59.5094 76.1545 59.081 75.1524 58.864 74.5006C58.645 73.8489 58.388 72.6137 58.2909 71.7536C58.1843 70.8007 58.1843 69.5807 58.2909 68.6277C58.388 67.7676 58.7231 66.3619 59.0392 65.5018C59.3533 64.6417 59.9321 63.4615 60.3243 62.878C60.7166 62.2926 61.2954 61.5253 61.6133 61.1729C61.9294 60.8187 62.6148 60.1594 63.1365 59.7066C63.6563 59.2538 64.5968 58.5964 65.2251 58.2479C65.8534 57.8974 66.7521 57.4711 67.2243 57.3025Z" fill="#91D200"/>
<path d="M71.2238 71.4221L74.2606 68.4856C77.0214 65.8144 77.3565 65.5492 77.9733 65.5492C78.4893 65.5492 78.7406 65.6723 79.0358 66.0702C79.249 66.3562 79.4204 66.7408 79.4165 66.9227C79.4146 67.1046 79.3347 67.4039 79.2414 67.5858C79.15 67.7676 77.4574 69.4689 75.4811 71.3634C72.9793 73.7637 71.7055 74.8568 71.2809 74.9629C70.6907 75.1107 70.5955 75.0425 68.4688 72.9377C66.62 71.1076 66.2678 70.6681 66.2735 70.1907C66.2773 69.8667 66.462 69.4386 66.7019 69.1961C66.9608 68.9346 67.3435 68.7736 67.6977 68.7774C68.1356 68.7831 68.6249 69.1014 71.2238 71.4221Z" fill="#E4EAF8"/>
</svg>
