<svg width="275" height="253" viewBox="0 0 275 253" fill="none" xmlns="http://www.w3.org/2000/svg">
<g clip-path="url(#clip0_62_22)">
<path fill-rule="evenodd" clip-rule="evenodd" d="M13.9584 73.1907C61.7421 49.7636 93.6029 34.3175 109.541 26.8525C155.063 5.55824 164.571 1.86013 170.685 1.72252C172.952 1.67293 175.176 2.42492 177.044 3.87259C178.354 5.1441 179.19 6.92573 179.383 8.86075C179.712 11.2672 179.804 13.7073 179.658 16.1366C177.197 45.3775 166.512 116.054 161.085 148.718C158.792 162.478 154.268 167.174 149.881 167.639C140.373 168.619 133.066 160.552 123.895 153.758C109.465 143.111 101.318 136.557 87.3153 126.099C71.1276 114.059 81.629 107.506 90.8463 96.7382C93.2615 93.9173 135.176 50.9848 136.001 47.0975C136.11 46.5235 136.098 45.9287 135.965 45.3611C135.832 44.7934 135.583 44.2688 135.237 43.8294C134.735 43.4765 134.167 43.2602 133.578 43.1974C132.989 43.1347 132.395 43.2274 131.843 43.4682C130.407 43.8237 107.366 60.9611 62.7204 94.8806C56.178 99.9375 50.2522 102.403 44.9429 102.277C39.0884 102.122 27.838 98.5443 19.4613 95.3966C9.20451 91.6469 1.11835 89.6688 1.76036 83.3562C2.13741 80.0537 6.20342 76.6652 13.9584 73.1907Z" stroke="#AAAAAA" stroke-width="2"/>
<path fill-rule="evenodd" clip-rule="evenodd" d="M115.598 198.761C142.443 185.636 160.342 176.982 169.296 172.8C194.87 160.87 200.211 158.798 203.646 158.721C204.92 158.694 206.17 159.115 207.219 159.926C207.955 160.638 208.424 161.636 208.533 162.72C208.718 164.069 208.769 165.436 208.687 166.797C207.305 183.179 201.302 222.775 198.253 241.074C196.965 248.783 194.423 251.414 191.959 251.674C186.617 252.224 182.512 247.704 177.36 243.898C169.253 237.933 164.676 234.261 156.81 228.402C147.715 221.657 153.615 217.985 158.793 211.953C160.15 210.373 183.697 186.32 184.161 184.142C184.222 183.821 184.215 183.487 184.141 183.169C184.066 182.851 183.926 182.557 183.732 182.311C183.45 182.114 183.131 181.992 182.8 181.957C182.469 181.922 182.135 181.974 181.825 182.109C181.018 182.308 168.074 191.909 142.992 210.912C139.317 213.745 135.988 215.127 133.005 215.056C129.716 214.969 123.395 212.965 118.689 211.201C112.927 209.101 108.384 207.992 108.745 204.456C108.957 202.606 111.241 200.707 115.598 198.761Z" stroke="#AAAAAA" stroke-width="2"/>
<path fill-rule="evenodd" clip-rule="evenodd" d="M213.192 73.5529C230.641 65.0853 242.276 59.5024 248.096 56.8042C264.719 49.1074 268.191 47.7708 270.424 47.721C271.252 47.7031 272.064 47.9749 272.746 48.4982C273.224 48.9577 273.53 49.6017 273.6 50.3011C273.72 51.1709 273.754 52.0529 273.7 52.9309C272.802 63.4999 268.9 89.0458 266.918 100.852C266.081 105.825 264.429 107.523 262.827 107.691C259.355 108.045 256.687 105.129 253.338 102.673C248.068 98.8253 245.093 96.4566 239.98 92.6766C234.069 88.3246 237.904 85.9559 241.269 82.0641C242.151 81.0445 257.457 65.5267 257.758 64.1216C257.798 63.9142 257.794 63.6992 257.745 63.494C257.697 63.2888 257.606 63.0992 257.479 62.9404C257.296 62.8128 257.089 62.7346 256.874 62.712C256.659 62.6893 256.442 62.7228 256.24 62.8098C255.715 62.9383 247.302 69.1326 230.999 81.3926C228.61 83.2204 226.446 84.1115 224.507 84.066C222.369 84.01 218.261 82.7169 215.202 81.5791C211.456 80.2238 208.504 79.5089 208.738 77.2272C208.876 76.0335 210.361 74.8088 213.192 73.5529Z" stroke="#AAAAAA" stroke-width="2"/>
</g>
<defs>
<clipPath id="clip0_62_22">
<rect width="274" height="252" fill="white" transform="translate(0.724609 0.720215)"/>
</clipPath>
</defs>
</svg>
