<?xml version="1.0" encoding="utf-8"?>
<!-- Generator: Adobe Illustrator 27.9.0, SVG Export Plug-In . SVG Version: 6.00 Build 0)  -->
<svg version="1.1" id="Слой_1" xmlns="http://www.w3.org/2000/svg" xmlns:xlink="http://www.w3.org/1999/xlink" x="0px" y="0px"
	 viewBox="0 0 38 12" style="enable-background:new 0 0 38 12;" xml:space="preserve" width="38px" height="12px">
<style type="text/css">
	.st0{fill:#FFFFFF;}
</style>
<path class="st0" d="M16.47,11.54h-3.08L15.31,0.5h3.08L16.47,11.54z"/>
<path class="st0" d="M27.63,0.77c-0.61-0.22-1.57-0.47-2.76-0.47c-3.04,0-5.18,1.5-5.19,3.65c-0.03,1.59,1.53,2.47,2.7,2.99
	c1.19,0.54,1.6,0.89,1.6,1.37C23.95,9.06,23,9.4,22.12,9.4c-1.23,0-1.89-0.18-2.89-0.59l-0.41-0.18l-0.43,2.48
	c0.72,0.3,2.05,0.58,3.43,0.59c3.23,0,5.33-1.48,5.36-3.77c0.01-1.26-0.81-2.22-2.58-3.01c-1.08-0.5-1.74-0.85-1.74-1.36
	c0.01-0.47,0.56-0.95,1.77-0.95c1-0.02,1.74,0.2,2.29,0.42l0.28,0.12L27.63,0.77z"/>
<path class="st0" d="M31.72,7.63c0.25-0.63,1.23-3.09,1.23-3.09c-0.01,0.02,0.25-0.65,0.41-1.06l0.22,0.95c0,0,0.58,2.64,0.71,3.19
	C33.79,7.63,32.32,7.63,31.72,7.63z M35.52,0.5h-2.38c-0.73,0-1.29,0.2-1.61,0.92l-4.57,10.12h3.23c0,0,0.53-1.36,0.65-1.66
	c0.35,0,3.5,0,3.95,0c0.09,0.39,0.37,1.66,0.37,1.66H38L35.52,0.5z"/>
<path class="st0" d="M10.82,0.5L7.8,8.03L7.47,6.5C6.92,4.74,5.17,2.82,3.22,1.87l2.76,9.65h3.26L14.07,0.5H10.82z"/>
<path class="st0" d="M5,0.5H0.05L0,0.72C3.86,1.64,6.42,3.85,7.47,6.5L6.4,1.43C6.22,0.72,5.67,0.52,5,0.5z"/>
</svg>
