<svg width="76" height="78" viewBox="0 0 76 78" fill="none" xmlns="http://www.w3.org/2000/svg">
<path d="M57.7993 30.0397C58.0721 29.4737 58.0209 28.8838 57.7686 28.4064L57.1105 26.2379L51.2459 28.4098L47.0417 29.2861C46.4552 29.4089 45.8449 29.235 45.4085 28.819L38.9505 22.6543C37.856 21.6109 36.042 22.2724 35.8784 23.776L34.9134 32.6515C34.8486 33.2482 34.494 33.7733 33.9655 34.0597L29.5363 36.4465L24.5752 38.2843L25.2333 40.4495C25.3765 40.9166 25.7106 41.3292 26.2255 41.561L34.3679 45.2196C34.9168 45.4651 35.3055 45.9664 35.4146 46.5562L36.4887 52.4516L36.3762 53.2972L37.0308 55.401C37.0547 55.5067 37.0854 55.609 37.1263 55.7045V55.7181H37.1331C37.6241 56.9047 39.2403 57.2525 40.1609 56.2364L46.1586 49.625C46.5609 49.1817 47.1576 48.9635 47.7543 49.0419L56.5991 50.2319C57.9562 50.416 58.9654 49.1135 58.5835 47.8894L57.98 45.9391L56.7048 44.5104L53.9907 39.7709C53.694 39.2493 53.6702 38.6151 53.9293 38.0763L57.7959 30.0294L57.7993 30.0397Z" fill="url(#paint0_radial_1_5415)"/>
<path d="M55.9444 48.0681L47.0996 46.8781C46.5064 46.7997 45.9097 47.0145 45.5039 47.4612L39.5063 54.0726C38.4902 55.191 36.6319 54.6624 36.3625 53.1758L34.7634 44.3958C34.6542 43.806 34.2655 43.3047 33.7166 43.0592L25.5742 39.4006C24.1967 38.7801 24.1251 36.8502 25.4549 36.1307L33.3108 31.8959C33.8393 31.6095 34.1939 31.0844 34.2587 30.4877L35.2237 21.6122C35.3873 20.1086 37.2013 19.4471 38.2958 20.4904L44.7538 26.6552C45.1868 27.0712 45.7971 27.2451 46.387 27.1223L55.1261 25.2981C56.6059 24.9878 57.7959 26.512 57.1412 27.8724L53.2746 35.9193C53.0155 36.4615 53.0359 37.0957 53.336 37.6139L57.772 45.3608C58.5221 46.6735 57.4447 48.2761 55.9444 48.0749V48.0681Z" fill="url(#paint1_radial_1_5415)"/>
<path d="M37.0457 20.3653C37.3048 20.3653 37.6833 20.4335 38.0311 20.7676L44.489 26.9324C44.9016 27.3245 45.4438 27.5427 46.0132 27.5427C46.1632 27.5427 46.3167 27.5257 46.4633 27.495L55.2023 25.6708C55.3046 25.6503 55.4069 25.6401 55.5092 25.6401C56.0002 25.6401 56.4503 25.8958 56.7196 26.3186C56.989 26.7448 57.0163 27.2495 56.7947 27.7064L52.9281 35.7533C52.6144 36.4079 52.6416 37.1751 53.0031 37.8059L57.4391 45.5527C57.6982 46.0028 57.6982 46.5416 57.4391 46.9882C57.1765 47.4417 56.7162 47.7111 56.2014 47.7111C56.1332 47.7111 56.065 47.7077 55.9968 47.6974L47.1486 46.5075C47.0497 46.4938 46.9509 46.487 46.8554 46.487C46.2348 46.487 45.6381 46.7495 45.2221 47.2099L39.2245 53.8213C38.9483 54.1281 38.5698 54.2952 38.1675 54.2952C37.5844 54.2952 36.8888 53.9235 36.7388 53.112L35.1397 44.3287C35.0101 43.6126 34.5361 43.0091 33.8747 42.7125L25.7323 39.0538C25.2208 38.8254 24.9037 38.3515 24.8833 37.7923C24.8628 37.2331 25.1458 36.7387 25.6402 36.4727L33.4962 32.2379C34.1338 31.8935 34.5634 31.2559 34.6418 30.533L35.6068 21.6576C35.6988 20.8222 36.4183 20.3687 37.0491 20.3687M37.0491 19.9868C36.1762 19.9868 35.334 20.6142 35.2249 21.6166L34.26 30.4921C34.1952 31.0888 33.8406 31.6139 33.3121 31.9003L25.4561 36.1351C24.1263 36.8512 24.1945 38.7845 25.5754 39.405L33.7178 43.0637C34.2668 43.3092 34.6555 43.8104 34.7646 44.4003L36.3637 53.1837C36.5342 54.1247 37.3423 54.6805 38.1675 54.6805C38.6482 54.6805 39.1358 54.493 39.5075 54.0804L45.5051 47.469C45.8529 47.0837 46.3439 46.8689 46.8554 46.8689C46.9372 46.8689 47.019 46.8757 47.0975 46.8859L55.9456 48.0759C56.0309 48.0861 56.1161 48.093 56.2014 48.093C57.5618 48.093 58.479 46.5995 57.7732 45.3618L53.3372 37.615C53.0406 37.0933 53.0167 36.4591 53.2758 35.9203L57.1424 27.8734C57.7391 26.6323 56.8015 25.2582 55.5126 25.2582C55.3864 25.2582 55.2569 25.2718 55.1273 25.2991L46.3883 27.1233C46.2655 27.1506 46.1393 27.1608 46.0166 27.1608C45.5529 27.1608 45.0994 26.9835 44.7584 26.6562L38.3004 20.4914C37.9356 20.1437 37.4889 19.9834 37.0525 19.9834L37.0491 19.9868Z" fill="url(#paint2_linear_1_5415)"/>
<g style="mix-blend-mode:multiply" opacity="0.3">
<path d="M55.9444 48.0671L47.0996 46.8771C46.5064 46.7987 45.9097 47.0135 45.5039 47.4602L39.5063 54.0716C38.4902 55.19 36.6319 54.6615 36.3625 53.1748L34.7634 44.3949C34.6542 43.805 34.2655 43.3038 33.7166 43.0583L25.5742 39.3997C24.1967 38.7791 24.1251 36.8492 25.4549 36.1298L33.3108 31.8949C33.8393 31.6085 34.1939 31.0834 34.2587 30.4867L35.2237 21.6113C35.3873 20.1076 37.2013 19.4461 38.2958 20.4895L44.7538 26.6542C45.1868 27.0702 45.7971 27.2441 46.387 27.1213L55.1261 25.2971C56.6059 24.9869 57.7959 26.511 57.1412 27.8715L53.2746 35.9184C53.0155 36.4605 53.0359 37.0947 53.336 37.613L57.772 45.3598C58.5221 46.6725 57.4447 48.2751 55.9444 48.0739V48.0671Z" fill="#DD8731"/>
<path d="M37.0457 20.3643C37.3048 20.3643 37.6833 20.4325 38.0311 20.7667L44.489 26.9314C44.9016 27.3235 45.4438 27.5417 46.0132 27.5417C46.1632 27.5417 46.3167 27.5247 46.4633 27.494L55.2023 25.6698C55.3046 25.6493 55.4069 25.6391 55.5092 25.6391C56.0002 25.6391 56.4503 25.8948 56.7196 26.3176C56.989 26.7439 57.0163 27.2485 56.7947 27.7054L52.9281 35.7523C52.6144 36.4069 52.6416 37.1741 53.0031 37.8049L57.4391 45.5518C57.6982 46.0018 57.6982 46.5406 57.4391 46.9872C57.1765 47.4407 56.7162 47.7101 56.2014 47.7101C56.1332 47.7101 56.065 47.7067 55.9968 47.6965L47.1486 46.5065C47.0497 46.4928 46.9509 46.486 46.8554 46.486C46.2348 46.486 45.6381 46.7486 45.2221 47.2089L39.2245 53.8203C38.9483 54.1272 38.5698 54.2942 38.1675 54.2942C37.5844 54.2942 36.8888 53.9226 36.7388 53.1111L35.1397 44.3277C35.0101 43.6116 34.5361 43.0081 33.8747 42.7115L25.7323 39.0529C25.2208 38.8244 24.9037 38.3505 24.8833 37.7913C24.8628 37.2321 25.1458 36.7377 25.6402 36.4717L33.4962 32.2369C34.1338 31.8925 34.5634 31.2549 34.6418 30.532L35.6068 21.6566C35.6988 20.8212 36.4183 20.3677 37.0491 20.3677M37.0491 19.9858C36.1762 19.9858 35.334 20.6132 35.2249 21.6157L34.26 30.4911C34.1952 31.0878 33.8406 31.6129 33.3121 31.8993L25.4561 36.1342C24.1263 36.8502 24.1945 38.7835 25.5754 39.4041L33.7178 43.0627C34.2668 43.3082 34.6555 43.8094 34.7646 44.3993L36.3637 53.1827C36.5342 54.1238 37.3423 54.6795 38.1675 54.6795C38.6482 54.6795 39.1358 54.492 39.5075 54.0794L45.5051 47.468C45.8529 47.0827 46.3439 46.8679 46.8554 46.8679C46.9372 46.8679 47.019 46.8747 47.0975 46.8849L55.9456 48.0749C56.0309 48.0852 56.1161 48.092 56.2014 48.092C57.5618 48.092 58.479 46.5985 57.7732 45.3608L53.3372 37.614C53.0406 37.0923 53.0167 36.4581 53.2758 35.9194L57.1424 27.8725C57.7391 26.6313 56.8015 25.2572 55.5126 25.2572C55.3864 25.2572 55.2569 25.2709 55.1273 25.2981L46.3883 27.1223C46.2655 27.1496 46.1393 27.1598 46.0166 27.1598C45.5529 27.1598 45.0994 26.9825 44.7584 26.6552L38.3004 20.4905C37.9356 20.1427 37.4889 19.9824 37.0525 19.9824L37.0491 19.9858Z" fill="#DD8731"/>
</g>
<path style="mix-blend-mode:screen" d="M63 57C74.598 45.402 74.598 26.598 63 15C51.402 3.40202 32.598 3.40202 21 15C9.40202 26.598 9.40202 45.402 21 57C32.598 68.598 51.402 68.598 63 57Z" fill="url(#paint3_radial_1_5415)"/>
<defs>
<radialGradient id="paint0_radial_1_5415" cx="0" cy="0" r="1" gradientUnits="userSpaceOnUse" gradientTransform="translate(34.0672 29.5711) rotate(-16.91) scale(30.6055 30.6055)">
<stop stop-color="#DFA900"/>
<stop offset="0.84" stop-color="#DF8500"/>
</radialGradient>
<radialGradient id="paint1_radial_1_5415" cx="0" cy="0" r="1" gradientUnits="userSpaceOnUse" gradientTransform="translate(33.4109 27.3952) rotate(-16.91) scale(30.6055 30.6055)">
<stop stop-color="#FFF400"/>
<stop offset="0.16" stop-color="#FFE800"/>
<stop offset="0.45" stop-color="#FFCA00"/>
<stop offset="0.82" stop-color="#FF9A00"/>
<stop offset="0.84" stop-color="#FF9800"/>
</radialGradient>
<linearGradient id="paint2_linear_1_5415" x1="46.8929" y1="52.1028" x2="37.1002" y2="19.8811" gradientUnits="userSpaceOnUse">
<stop stop-color="#FFB722"/>
<stop offset="0.24" stop-color="#FFC633"/>
<stop offset="0.72" stop-color="#FFE250"/>
<stop offset="1" stop-color="#FFED5C"/>
</linearGradient>
<radialGradient id="paint3_radial_1_5415" cx="0" cy="0" r="1" gradientUnits="userSpaceOnUse" gradientTransform="translate(42.3941 36.1923) rotate(-16.91) scale(26.9366)">
<stop stop-color="#DFA900"/>
<stop offset="0.03" stop-color="#DFA800" stop-opacity="0.97"/>
<stop offset="0.39" stop-color="#DFA100" stop-opacity="0.56"/>
<stop offset="0.68" stop-color="#DF9B00" stop-opacity="0.26"/>
<stop offset="0.89" stop-color="#DF9800" stop-opacity="0.07"/>
<stop offset="1" stop-color="#DF9700" stop-opacity="0"/>
</radialGradient>
</defs>
</svg>
